<svg id="svg" version="1.1" xmlns="http://www.w3.org/2000/svg" xmlns:xlink="http://www.w3.org/1999/xlink" width="400" height="400" viewBox="0, 0, 400,400"><g id="svgg"><path id="path0" d="M190.234 42.991 C 184.425 44.701,181.362 45.364,175.889 46.094 C 167.617 47.197,164.693 47.923,160.938 49.802 C 159.111 50.716,157.002 51.596,156.250 51.757 C 154.489 52.134,151.588 53.599,148.633 55.605 C 147.344 56.480,145.195 57.594,143.859 58.080 C 137.556 60.371,133.306 63.084,130.579 66.555 C 129.552 67.864,126.771 70.958,124.400 73.432 C 122.029 75.906,119.579 78.633,118.956 79.492 C 118.332 80.352,116.566 82.285,115.030 83.789 C 113.330 85.454,111.648 87.593,110.730 89.258 C 109.900 90.762,108.576 92.959,107.786 94.141 C 104.297 99.362,102.589 106.320,102.563 115.430 L 102.544 121.680 105.720 128.132 C 107.466 131.681,109.669 135.548,110.615 136.726 C 111.561 137.904,112.890 139.746,113.568 140.820 C 114.246 141.895,116.423 144.355,118.405 146.289 C 124.609 152.340,125.048 152.837,127.597 156.700 C 133.660 165.884,134.338 173.266,129.188 174.027 C 125.269 174.607,116.974 171.802,110.904 167.845 C 109.078 166.655,104.427 164.078,100.569 162.118 C 94.999 159.288,92.911 157.995,90.430 155.836 C 87.243 153.064,80.709 148.438,79.981 148.438 C 79.380 148.438,72.022 142.782,69.336 140.256 C 66.698 137.775,62.376 134.032,59.816 132.011 C 56.395 129.311,50.002 120.218,50.000 118.051 C 50.000 117.076,48.308 114.237,46.581 112.311 C 45.620 111.241,44.301 109.571,43.649 108.600 C 38.344 100.705,31.447 101.874,26.298 111.541 C 23.639 116.533,22.988 133.728,25.145 141.992 C 26.678 147.862,26.878 152.278,25.815 156.753 C 23.981 164.476,25.047 169.236,30.003 175.458 C 31.257 177.032,33.096 179.639,34.090 181.250 C 35.084 182.861,36.953 185.579,38.244 187.289 C 41.504 191.606,43.099 195.682,43.145 199.805 C 43.185 203.421,44.664 206.770,47.892 210.552 C 48.855 211.680,50.190 213.414,50.859 214.407 C 51.529 215.399,53.148 217.377,54.456 218.801 C 60.540 225.423,65.326 231.081,69.922 237.083 C 73.780 242.121,80.762 248.099,84.048 249.178 C 84.835 249.436,86.680 250.488,88.149 251.515 C 91.884 254.127,94.111 255.348,95.703 255.659 C 96.633 255.840,97.571 256.484,98.633 257.670 C 99.979 259.173,100.582 259.513,102.989 260.127 C 107.531 261.286,111.146 262.833,114.323 264.978 C 115.964 266.086,117.777 267.298,118.352 267.672 C 122.011 270.054,129.674 270.633,134.840 268.918 L 137.844 267.920 141.013 268.921 C 145.787 270.429,151.130 269.492,159.663 265.650 C 163.739 263.815,164.712 263.732,167.383 264.991 C 174.093 268.156,174.994 279.705,169.154 287.695 C 165.427 292.794,162.308 305.509,162.600 314.412 C 162.858 322.243,166.500 334.595,171.148 343.401 C 175.619 351.872,183.923 355.160,194.336 352.582 C 198.224 351.620,198.248 351.619,199.414 352.369 C 203.658 355.098,208.857 356.500,214.305 356.387 C 221.357 356.241,229.557 344.326,230.917 332.248 C 231.136 330.303,231.979 326.647,232.820 323.999 C 236.016 313.936,236.233 306.484,233.603 297.168 C 232.982 294.966,232.191 291.318,231.846 289.063 C 231.501 286.807,230.938 283.946,230.595 282.707 C 229.767 279.718,230.086 276.702,231.484 274.298 C 236.577 265.538,238.093 264.681,244.097 267.165 C 245.684 267.822,247.214 268.359,247.496 268.359 C 247.779 268.359,249.380 269.100,251.056 270.005 C 254.631 271.936,256.932 272.092,267.969 271.154 C 277.185 270.371,281.965 269.024,286.594 265.906 C 287.810 265.086,290.458 263.965,293.234 263.094 C 303.684 259.816,309.579 256.975,311.692 254.199 C 312.550 253.071,314.249 251.445,315.466 250.586 C 318.550 248.410,323.314 244.572,326.031 242.075 C 327.290 240.918,329.411 239.396,330.744 238.691 C 334.635 236.635,335.904 235.286,338.672 230.267 C 340.592 226.786,341.716 225.225,343.281 223.867 C 344.419 222.879,346.507 220.603,347.921 218.810 C 349.335 217.017,351.799 214.152,353.397 212.443 C 356.982 208.609,359.595 203.583,360.185 199.386 C 360.788 195.098,362.328 190.613,364.151 187.836 C 365.069 186.437,366.242 184.339,366.757 183.174 C 367.273 182.008,368.616 179.033,369.742 176.563 C 373.154 169.078,373.397 167.541,372.235 160.835 C 371.079 154.163,371.325 151.215,373.611 144.339 C 378.213 130.494,378.601 119.560,374.768 111.685 C 370.122 102.141,365.702 99.872,361.653 104.953 C 360.937 105.851,359.500 107.330,358.460 108.240 C 357.315 109.242,354.986 112.298,352.560 115.983 C 348.348 122.379,345.943 124.982,337.745 132.020 C 335.784 133.703,331.455 137.879,328.125 141.298 L 322.070 147.516 315.625 150.768 C 308.571 154.326,301.505 158.762,297.852 161.925 C 296.563 163.041,294.453 164.489,293.164 165.142 C 291.875 165.795,289.625 167.214,288.164 168.296 C 283.004 172.116,275.510 173.038,273.578 170.089 C 272.120 167.863,274.140 161.779,278.107 156.445 C 278.906 155.371,279.787 154.065,280.066 153.543 C 280.344 153.021,281.679 151.415,283.033 149.973 C 284.566 148.341,286.090 146.167,287.073 144.213 C 287.941 142.486,289.315 140.042,290.127 138.782 C 290.938 137.522,291.979 135.619,292.439 134.554 C 292.900 133.489,293.820 131.380,294.483 129.867 C 298.741 120.156,298.628 116.798,293.545 101.953 C 290.077 91.822,288.369 88.644,282.944 82.221 C 277.444 75.708,263.972 62.384,260.938 60.454 C 257.850 58.491,251.953 55.591,248.699 54.434 C 247.159 53.887,245.136 53.000,244.203 52.464 C 241.356 50.826,234.763 48.099,232.656 47.688 C 231.560 47.475,229.382 47.114,227.816 46.886 C 226.250 46.658,223.520 46.052,221.750 45.539 C 219.980 45.026,216.689 44.421,214.436 44.194 C 212.184 43.968,208.849 43.425,207.026 42.988 C 202.487 41.900,193.935 41.901,190.234 42.991 M216.156 50.350 C 249.599 55.800,274.783 73.417,287.582 100.315 C 292.558 110.773,293.154 117.180,289.648 122.564 C 285.960 128.229,274.621 144.369,268.382 152.832 C 258.539 166.187,241.757 190.281,239.360 194.500 C 236.659 199.255,236.838 199.967,244.151 213.496 C 251.706 227.473,251.309 228.848,236.690 239.351 C 222.648 249.440,223.999 247.306,223.151 260.747 L 222.498 271.094 219.257 271.094 L 216.016 271.094 216.016 253.351 L 216.016 235.607 217.395 235.152 C 221.250 233.880,235.389 222.141,235.226 220.348 C 234.996 217.812,231.287 209.159,228.619 204.933 C 226.229 201.146,228.274 196.283,237.239 184.430 C 242.986 176.833,262.696 148.862,277.881 126.757 C 283.957 117.911,284.047 117.196,279.471 114.048 C 271.069 108.267,260.006 111.540,254.819 121.342 C 253.925 123.032,251.004 129.863,248.327 136.523 C 245.650 143.184,242.367 151.094,241.032 154.102 C 239.696 157.109,237.585 162.119,236.342 165.234 C 233.541 172.252,227.684 186.204,225.040 192.156 C 222.239 198.464,220.920 199.626,219.127 197.363 C 217.814 195.706,218.258 193.032,220.895 186.719 C 226.605 173.048,248.047 118.699,248.047 117.897 C 248.047 115.887,241.957 112.098,237.422 111.287 C 227.831 109.573,220.803 115.392,220.105 125.623 C 219.959 127.751,219.243 133.096,218.512 137.500 C 216.052 152.327,214.819 160.676,213.066 174.386 C 210.919 191.174,210.298 193.359,207.675 193.359 C 204.862 193.359,204.593 188.981,206.643 176.563 C 207.732 169.965,209.162 159.311,210.935 144.569 C 211.799 137.393,212.884 128.744,213.347 125.348 L 214.189 119.175 213.144 117.596 C 207.483 109.041,188.130 109.983,186.515 118.892 C 186.247 120.374,190.234 151.964,194.361 181.055 C 195.681 190.363,195.152 193.359,192.188 193.359 C 189.594 193.359,189.248 192.100,187.306 175.586 C 185.745 162.315,183.694 148.377,181.989 139.453 C 181.353 136.123,180.573 130.938,180.257 127.930 C 179.334 119.168,178.438 117.102,174.371 114.362 C 167.563 109.775,158.950 110.439,152.568 116.043 C 150.841 117.559,150.842 117.800,152.576 121.887 C 153.348 123.707,158.639 136.621,164.333 150.586 C 170.027 164.551,176.190 179.580,178.027 183.984 C 182.158 193.887,182.558 196.720,180.018 198.079 C 177.874 199.227,177.269 198.169,169.571 179.794 C 157.748 151.570,144.741 121.333,143.538 119.277 C 137.908 109.645,121.229 108.630,116.572 117.636 C 115.595 119.524,115.876 120.038,123.949 131.111 C 128.313 137.096,136.606 148.584,142.379 156.641 C 148.152 164.697,155.795 175.244,159.364 180.078 C 174.745 200.913,174.113 199.087,169.370 208.958 C 166.767 214.374,164.844 219.711,164.844 221.517 C 164.844 222.678,180.578 234.553,182.623 234.936 L 183.984 235.192 183.984 253.143 L 183.984 271.094 180.749 271.094 L 177.513 271.094 176.824 260.686 C 175.932 247.222,177.188 249.254,163.772 239.587 C 148.556 228.624,148.508 228.440,156.620 212.305 C 162.193 201.219,162.827 199.508,162.174 197.328 C 161.659 195.608,157.211 188.875,150.298 179.349 C 147.746 175.832,143.783 170.207,141.492 166.849 C 139.202 163.490,134.152 156.523,130.272 151.367 C 126.392 146.211,121.979 140.234,120.465 138.086 C 106.349 118.046,107.384 120.353,108.987 112.488 C 115.588 80.095,150.105 53.195,189.844 49.474 C 194.845 49.006,211.263 49.552,216.156 50.350 M368.038 114.946 C 372.043 135.084,363.689 150.675,341.937 163.663 C 335.291 167.631,309.090 180.523,296.289 186.124 C 278.283 194.003,276.561 195.437,289.666 191.642 C 298.471 189.091,303.444 187.387,310.325 184.562 C 313.133 183.409,319.249 180.962,323.918 179.123 C 343.005 171.606,357.025 164.236,364.355 157.866 L 367.578 155.065 367.578 156.547 C 367.578 178.960,352.628 191.650,317.578 198.986 C 314.033 199.728,307.424 201.223,302.890 202.308 C 298.357 203.394,291.941 204.812,288.632 205.460 C 274.358 208.257,273.322 208.843,283.301 208.476 C 303.252 207.741,337.282 201.222,353.209 195.083 C 355.553 194.179,355.674 194.343,354.665 197.040 C 350.174 209.045,334.942 219.452,319.531 221.044 C 313.428 221.675,284.771 221.552,277.148 220.862 C 273.984 220.575,274.718 221.210,278.711 222.212 C 287.986 224.540,303.844 226.135,320.783 226.445 L 333.167 226.671 332.545 227.875 C 330.915 231.027,324.861 236.004,320.095 238.112 C 312.991 241.254,307.736 241.537,296.875 239.362 C 292.900 238.566,287.451 237.477,284.766 236.942 C 282.080 236.406,278.468 235.538,276.740 235.012 C 273.012 233.878,269.922 233.358,269.922 233.864 C 269.922 236.115,290.193 242.796,305.371 245.549 C 309.799 246.352,309.779 246.335,308.397 247.977 C 303.756 253.493,289.469 256.073,281.445 252.844 C 279.727 252.153,276.089 250.369,273.363 248.880 C 266.278 245.013,264.152 244.023,263.481 244.280 C 262.481 244.664,262.777 245.064,266.309 248.091 C 273.782 254.497,279.212 258.043,283.594 259.379 L 285.742 260.035 284.180 260.707 C 274.905 264.699,266.290 262.628,256.402 254.029 C 254.329 252.226,252.734 251.425,252.734 252.186 C 252.734 254.116,257.444 260.559,260.742 263.141 C 262.805 264.756,262.378 265.039,257.878 265.039 C 251.841 265.039,246.941 262.297,242.197 256.263 C 240.356 253.920,239.350 252.999,238.049 252.464 C 235.933 251.594,235.935 251.568,238.200 250.497 C 240.394 249.458,246.827 243.787,249.842 240.234 C 259.013 229.425,260.029 220.725,253.829 206.072 C 251.884 201.475,251.856 201.351,252.050 198.240 C 252.431 192.138,253.737 190.830,264.819 185.449 C 302.837 166.989,314.174 160.379,333.658 145.313 C 343.922 137.376,361.350 118.658,365.099 111.545 C 366.782 108.353,366.711 108.272,368.038 114.946 M38.204 115.430 C 53.291 137.936,88.094 164.249,123.941 180.252 C 149.335 191.588,151.532 194.307,145.849 207.360 C 138.280 224.745,144.651 240.557,163.341 250.778 L 165.406 251.907 164.318 252.321 C 163.720 252.548,162.817 252.734,162.312 252.734 C 161.296 252.734,160.526 253.491,157.105 257.848 C 152.171 264.133,145.683 266.654,138.770 264.973 C 137.515 264.668,137.650 264.426,139.941 262.875 C 143.992 260.132,149.369 251.936,147.103 251.957 C 146.870 251.959,144.842 253.451,142.596 255.271 C 133.451 262.683,125.437 264.430,117.055 260.839 L 115.164 260.030 117.319 259.363 C 121.985 257.919,137.826 246.008,136.955 244.598 C 136.358 243.631,134.105 244.632,124.448 250.157 C 113.619 256.352,100.211 255.578,92.285 248.300 C 90.179 246.366,90.198 246.249,92.676 245.930 C 94.964 245.635,102.554 243.984,110.013 242.160 C 117.892 240.232,127.571 236.275,129.688 234.116 C 130.586 233.199,127.113 233.768,120.935 235.550 C 118.122 236.361,114.061 237.305,111.910 237.646 C 109.760 237.988,105.453 238.827,102.340 239.510 C 95.449 241.023,89.544 241.227,85.742 240.083 C 78.751 237.979,72.497 234.016,69.355 229.698 C 66.805 226.195,66.528 226.349,75.102 226.497 C 89.557 226.747,114.241 224.488,122.168 222.191 C 125.896 221.111,125.816 220.561,121.973 220.848 C 103.304 222.246,80.732 221.645,72.458 219.531 C 64.945 217.612,54.877 210.631,50.206 204.102 C 47.428 200.219,44.524 193.709,45.823 194.278 C 46.079 194.391,47.928 195.201,49.932 196.080 C 59.061 200.081,78.241 204.132,103.711 207.437 C 111.334 208.427,123.047 208.925,123.047 208.260 C 123.047 208.014,122.974 207.813,122.885 207.813 C 122.235 207.813,103.623 203.965,96.543 202.367 C 67.939 195.910,57.292 192.364,47.010 185.870 C 39.390 181.058,32.981 168.490,33.286 158.962 L 33.398 155.473 36.133 157.865 C 43.538 164.342,56.955 171.148,85.742 183.028 C 96.432 187.440,113.677 193.110,117.801 193.569 L 119.727 193.784 116.602 192.150 C 114.883 191.251,108.027 188.060,101.367 185.058 C 44.890 159.599,31.836 148.214,31.836 124.414 C 31.836 117.902,33.101 109.111,33.989 109.458 C 34.147 109.520,36.044 112.207,38.204 115.430 M206.555 202.134 C 221.043 208.681,215.542 230.746,199.609 229.997 C 187.100 229.409,180.755 215.330,188.687 205.761 C 192.555 201.094,200.628 199.456,206.555 202.134 M208.984 253.125 L 208.984 271.094 200.000 271.094 L 191.016 271.094 191.016 253.125 L 191.016 235.156 200.000 235.156 L 208.984 235.156 208.984 253.125 M214.855 278.515 L 221.702 278.516 224.188 287.012 C 225.555 291.685,227.452 298.145,228.403 301.367 C 230.557 308.661,230.717 307.309,225.587 325.138 C 220.802 341.770,220.293 343.299,218.735 345.726 C 215.204 351.230,207.390 352.011,204.052 347.194 C 201.756 343.880,201.991 342.230,207.189 325.205 C 209.681 317.047,211.717 310.103,211.714 309.776 C 211.709 309.114,205.603 291.019,205.273 290.689 C 204.889 290.305,194.864 289.744,194.576 290.090 C 194.420 290.277,192.643 294.608,190.628 299.715 L 186.964 309.001 187.563 311.434 C 187.893 312.772,189.617 319.229,191.395 325.781 C 193.572 333.808,194.632 338.408,194.644 339.879 C 194.700 346.868,186.352 351.817,181.332 347.772 C 178.328 345.351,177.571 343.360,172.251 323.912 C 167.817 307.703,167.663 310.686,173.931 291.442 L 178.309 278.001 193.159 278.258 C 201.326 278.399,211.089 278.515,214.855 278.515 " stroke="none" fill="#070706" fill-rule="evenodd"></path><path id="path1" d="M192.361 40.661 C 192.240 40.856,191.534 41.016,190.792 41.016 C 190.050 41.016,189.093 41.191,188.667 41.406 C 188.240 41.621,187.541 41.973,187.115 42.188 C 186.688 42.402,185.907 42.578,185.380 42.578 C 184.853 42.578,184.312 42.754,184.180 42.969 C 184.047 43.184,183.432 43.359,182.813 43.359 C 182.193 43.359,181.578 43.535,181.445 43.750 C 181.313 43.965,180.258 44.141,179.102 44.141 C 177.945 44.141,176.891 44.316,176.758 44.531 C 176.625 44.746,175.219 44.922,173.633 44.922 C 172.047 44.922,170.641 45.098,170.508 45.313 C 170.375 45.527,169.496 45.703,168.555 45.703 C 167.613 45.703,166.734 45.879,166.602 46.094 C 166.469 46.309,165.841 46.484,165.206 46.484 C 164.571 46.484,163.747 46.642,163.374 46.835 C 159.369 48.905,155.861 50.396,155.004 50.394 C 154.425 50.392,153.844 50.566,153.711 50.781 C 153.578 50.996,153.128 51.172,152.711 51.172 C 152.294 51.172,151.953 51.348,151.953 51.563 C 151.953 51.777,151.602 51.953,151.172 51.953 C 150.742 51.953,150.391 52.129,150.391 52.344 C 150.391 52.559,150.153 52.734,149.863 52.734 C 149.572 52.734,148.820 53.218,148.192 53.809 C 146.827 55.091,143.963 56.641,142.955 56.641 C 142.558 56.641,142.125 56.816,141.992 57.031 C 141.859 57.246,141.410 57.422,140.993 57.422 C 140.576 57.422,140.234 57.598,140.234 57.813 C 140.234 58.027,139.883 58.203,139.453 58.203 C 139.023 58.203,138.672 58.379,138.672 58.594 C 138.672 58.809,138.320 58.984,137.891 58.984 C 137.461 58.984,137.109 59.160,137.109 59.375 C 137.109 59.590,136.758 59.766,136.328 59.766 C 135.898 59.766,135.547 59.941,135.547 60.156 C 135.547 60.371,135.316 60.547,135.035 60.547 C 134.753 60.547,134.181 60.854,133.765 61.230 C 133.348 61.606,132.348 62.406,131.543 63.008 C 130.737 63.610,130.078 64.292,130.078 64.525 C 130.078 64.757,129.767 65.232,129.387 65.579 C 129.008 65.927,127.968 67.090,127.077 68.164 C 126.186 69.238,123.684 71.936,121.518 74.160 C 119.351 76.383,117.578 78.368,117.578 78.569 C 117.578 78.771,116.040 80.477,114.160 82.360 C 110.712 85.814,109.900 86.881,108.685 89.551 C 108.319 90.356,107.885 91.016,107.720 91.016 C 107.556 91.016,107.422 91.246,107.422 91.528 C 107.422 91.810,107.073 92.415,106.647 92.872 C 105.630 93.963,104.297 96.355,104.297 97.087 C 104.297 97.406,104.142 97.972,103.952 98.345 C 103.762 98.718,103.390 99.551,103.125 100.195 C 102.860 100.840,102.488 101.672,102.298 102.045 C 102.108 102.419,101.953 103.331,101.953 104.073 C 101.953 104.815,101.801 105.517,101.614 105.632 C 101.428 105.747,101.145 107.735,100.986 110.050 C 100.387 118.784,100.684 121.843,102.458 125.195 C 102.685 125.625,103.214 126.680,103.633 127.539 C 104.052 128.398,104.576 129.453,104.797 129.883 C 105.380 131.013,105.702 131.687,106.290 133.008 C 107.013 134.631,108.921 137.441,110.232 138.813 C 110.835 139.443,111.328 140.197,111.328 140.488 C 111.328 140.778,111.504 141.016,111.719 141.016 C 111.934 141.016,112.109 141.252,112.109 141.542 C 112.109 141.974,115.105 145.485,117.256 147.573 C 117.541 147.849,119.272 149.519,121.104 151.284 C 122.936 153.048,124.679 154.976,124.979 155.566 C 125.278 156.157,125.669 156.641,125.847 156.641 C 126.026 156.641,126.172 156.871,126.172 157.153 C 126.172 157.435,126.523 158.043,126.953 158.504 C 127.383 158.965,127.734 159.599,127.734 159.912 C 127.734 160.225,127.866 160.540,128.027 160.612 C 128.398 160.777,129.817 163.789,130.449 165.750 C 131.086 167.727,130.323 170.475,128.846 171.527 C 127.720 172.329,124.064 172.573,123.633 171.875 C 123.500 171.660,122.885 171.484,122.266 171.484 C 121.646 171.484,121.031 171.309,120.898 171.094 C 120.766 170.879,120.238 170.703,119.727 170.703 C 119.215 170.703,118.687 170.527,118.555 170.313 C 118.422 170.098,117.972 169.922,117.555 169.922 C 117.138 169.922,116.797 169.746,116.797 169.531 C 116.797 169.316,116.445 169.141,116.016 169.141 C 115.586 169.141,115.234 168.965,115.234 168.750 C 115.234 168.535,115.004 168.359,114.722 168.359 C 114.440 168.359,113.832 168.008,113.371 167.578 C 112.910 167.148,112.342 166.797,112.109 166.797 C 111.877 166.797,111.309 166.445,110.848 166.016 C 110.386 165.586,109.778 165.234,109.497 165.234 C 109.215 165.234,108.984 165.059,108.984 164.844 C 108.984 164.629,108.647 164.453,108.236 164.453 C 107.824 164.453,107.428 164.321,107.357 164.160 C 107.285 163.999,106.479 163.472,105.566 162.988 C 104.653 162.505,103.159 161.714,102.246 161.230 C 101.333 160.747,100.527 160.220,100.456 160.059 C 100.384 159.897,99.989 159.766,99.577 159.766 C 99.165 159.766,98.828 159.590,98.828 159.375 C 98.828 159.160,98.477 158.984,98.047 158.984 C 97.617 158.984,97.266 158.809,97.266 158.594 C 97.266 158.379,96.914 158.203,96.484 158.203 C 96.055 158.203,95.703 158.065,95.703 157.897 C 95.703 157.728,95.197 157.292,94.579 156.926 C 93.961 156.561,92.863 155.708,92.138 155.031 C 91.413 154.353,90.205 153.342,89.453 152.783 C 88.701 152.224,87.820 151.501,87.496 151.176 C 87.171 150.852,86.512 150.366,86.031 150.098 C 85.550 149.829,84.761 149.390,84.277 149.121 C 83.794 148.853,83.311 148.536,83.203 148.417 C 83.096 148.299,82.357 147.899,81.561 147.529 C 80.766 147.158,79.887 146.634,79.608 146.364 C 79.329 146.094,78.486 145.448,77.734 144.928 C 76.982 144.408,76.279 143.878,76.172 143.750 C 76.064 143.622,75.361 143.089,74.609 142.566 C 73.857 142.043,72.684 141.059,72.002 140.380 C 71.319 139.702,70.089 138.644,69.267 138.030 C 68.446 137.416,66.982 136.118,66.016 135.145 C 65.049 134.173,63.643 132.945,62.891 132.416 C 61.214 131.239,58.770 128.802,57.298 126.840 C 56.692 126.033,55.813 124.981,55.344 124.503 C 54.876 124.024,54.243 123.149,53.938 122.559 C 53.633 121.968,53.238 121.484,53.059 121.484 C 52.880 121.484,52.734 121.133,52.734 120.703 C 52.734 120.273,52.559 119.922,52.344 119.922 C 52.129 119.922,51.953 119.493,51.953 118.968 C 51.953 118.444,51.777 117.906,51.563 117.773 C 51.348 117.641,51.172 117.196,51.172 116.786 C 51.172 115.616,49.823 113.503,47.674 111.309 C 46.590 110.202,45.703 109.050,45.703 108.749 C 45.703 108.449,45.527 108.203,45.313 108.203 C 45.098 108.203,44.922 107.973,44.922 107.691 C 44.922 107.409,44.600 106.833,44.207 106.411 C 43.814 105.989,43.200 105.199,42.844 104.654 C 39.192 99.080,27.855 102.488,25.516 109.863 C 25.397 110.239,25.144 110.547,24.954 110.547 C 24.765 110.547,24.609 110.898,24.609 111.328 C 24.609 111.758,24.434 112.109,24.219 112.109 C 24.004 112.109,23.828 112.514,23.828 113.008 C 23.828 113.502,23.667 114.073,23.469 114.277 C 22.650 115.124,21.881 135.709,22.640 136.469 C 22.864 136.692,23.047 137.796,23.047 138.922 C 23.047 140.048,23.223 141.078,23.437 141.211 C 23.652 141.344,23.828 142.135,23.828 142.969 C 23.828 143.803,24.004 144.594,24.219 144.727 C 24.434 144.859,24.609 145.868,24.609 146.968 C 24.609 148.068,24.823 149.559,25.084 150.281 C 25.457 151.311,25.457 151.757,25.084 152.354 C 24.823 152.772,24.609 153.908,24.609 154.878 C 24.609 155.847,24.434 156.641,24.219 156.641 C 23.976 156.641,23.828 158.854,23.828 162.500 C 23.828 166.146,23.976 168.359,24.219 168.359 C 24.434 168.359,24.609 168.788,24.609 169.313 C 24.609 169.837,24.785 170.375,25.000 170.508 C 25.215 170.641,25.391 171.090,25.391 171.507 C 25.391 171.924,25.566 172.266,25.781 172.266 C 25.996 172.266,26.172 172.496,26.172 172.778 C 26.172 173.060,26.523 173.668,26.953 174.129 C 27.383 174.590,27.734 175.124,27.734 175.316 C 27.734 175.508,28.218 176.178,28.809 176.804 C 29.399 177.431,30.132 178.424,30.437 179.011 C 30.742 179.598,31.137 180.078,31.316 180.078 C 31.495 180.078,31.641 180.266,31.641 180.496 C 31.641 180.726,32.168 181.680,32.813 182.617 C 33.457 183.554,33.984 184.474,33.984 184.662 C 33.984 184.850,34.608 185.685,35.371 186.517 C 36.134 187.350,37.051 188.527,37.408 189.133 C 37.766 189.739,38.197 190.234,38.365 190.234 C 38.534 190.234,38.672 190.586,38.672 191.016 C 38.672 191.445,38.848 191.797,39.063 191.797 C 39.277 191.797,39.453 192.151,39.453 192.583 C 39.453 193.016,39.608 193.675,39.798 194.048 C 39.988 194.421,40.318 195.166,40.531 195.703 C 40.744 196.240,41.116 197.171,41.358 197.772 C 41.599 198.373,41.797 199.893,41.797 201.151 C 41.797 202.905,42.053 203.922,42.900 205.527 C 44.658 208.857,45.044 209.445,46.352 210.793 C 47.030 211.493,47.903 212.602,48.291 213.259 C 48.679 213.916,49.134 214.453,49.303 214.453 C 49.471 214.453,49.609 214.805,49.609 215.234 C 49.609 215.664,49.747 216.016,49.916 216.016 C 50.084 216.016,50.509 216.501,50.859 217.093 C 51.209 217.686,52.449 219.140,53.615 220.325 C 54.781 221.510,55.807 222.682,55.895 222.930 C 55.983 223.179,57.417 224.792,59.082 226.517 C 60.747 228.241,62.109 229.801,62.109 229.984 C 62.109 230.167,62.747 231.010,63.526 231.857 C 64.306 232.705,65.404 234.014,65.967 234.766 C 66.529 235.518,67.474 236.599,68.065 237.168 C 68.657 237.738,69.141 238.407,69.141 238.654 C 69.141 239.280,78.132 248.047,78.774 248.047 C 79.062 248.047,79.297 248.195,79.297 248.376 C 79.297 248.557,80.132 249.104,81.152 249.591 C 82.173 250.078,83.313 250.633,83.686 250.824 C 84.059 251.015,84.630 251.172,84.956 251.172 C 85.281 251.172,85.547 251.318,85.547 251.496 C 85.547 251.675,86.027 252.071,86.614 252.375 C 87.201 252.680,88.194 253.413,88.821 254.004 C 89.447 254.595,90.197 255.078,90.488 255.078 C 90.778 255.078,91.016 255.254,91.016 255.469 C 91.016 255.684,91.367 255.859,91.797 255.859 C 92.227 255.859,92.578 256.035,92.578 256.250 C 92.578 256.465,92.930 256.641,93.359 256.641 C 93.789 256.641,94.141 256.816,94.141 257.031 C 94.141 257.246,94.459 257.422,94.847 257.422 C 95.236 257.422,96.159 258.121,96.898 258.976 C 97.637 259.830,98.550 260.533,98.926 260.538 C 99.302 260.543,99.609 260.723,99.609 260.938 C 99.609 261.152,100.214 261.328,100.954 261.328 C 101.693 261.328,102.406 261.504,102.539 261.719 C 102.672 261.934,103.287 262.109,103.906 262.109 C 104.525 262.109,105.141 262.285,105.273 262.500 C 105.406 262.715,105.934 262.891,106.445 262.891 C 106.957 262.891,107.484 263.066,107.617 263.281 C 107.750 263.496,108.288 263.672,108.812 263.672 C 109.337 263.672,109.766 263.848,109.766 264.063 C 109.766 264.277,110.117 264.453,110.547 264.453 C 110.977 264.453,111.328 264.591,111.328 264.760 C 111.328 264.928,111.812 265.352,112.402 265.702 C 112.993 266.052,114.004 266.793,114.648 267.348 C 115.293 267.904,116.040 268.359,116.309 268.359 C 116.577 268.359,116.798 268.491,116.800 268.652 C 116.804 269.085,118.771 269.922,119.781 269.922 C 120.263 269.922,120.766 270.098,120.898 270.313 C 121.031 270.527,121.822 270.703,122.656 270.703 C 123.490 270.703,124.281 270.879,124.414 271.094 C 124.547 271.309,125.250 271.484,125.977 271.484 C 126.703 271.484,127.406 271.660,127.539 271.875 C 127.853 272.383,130.350 272.383,130.664 271.875 C 130.797 271.660,131.500 271.484,132.227 271.484 C 132.953 271.484,133.656 271.309,133.789 271.094 C 133.922 270.879,134.449 270.703,134.961 270.703 C 135.473 270.703,136.000 270.527,136.133 270.313 C 136.431 269.829,138.058 269.803,138.970 270.267 C 141.447 271.527,142.096 271.665,145.224 271.598 C 147.055 271.558,148.737 271.341,148.964 271.114 C 149.190 270.888,149.782 270.703,150.279 270.703 C 150.776 270.703,151.532 270.527,151.958 270.313 C 152.385 270.098,153.084 269.746,153.510 269.531 C 153.937 269.316,154.718 269.141,155.245 269.141 C 155.772 269.141,156.313 268.965,156.445 268.750 C 156.578 268.535,157.105 268.359,157.617 268.359 C 158.129 268.359,158.656 268.184,158.789 267.969 C 158.922 267.754,159.372 267.578,159.789 267.578 C 160.206 267.578,160.547 267.402,160.547 267.188 C 160.547 266.973,160.888 266.797,161.305 266.797 C 161.722 266.797,162.172 266.621,162.305 266.406 C 162.741 265.701,166.133 265.972,167.188 266.797 C 167.725 267.217,168.308 267.565,168.485 267.569 C 169.031 267.584,169.922 268.662,169.922 269.308 C 169.922 269.646,170.098 269.922,170.313 269.922 C 170.527 269.922,170.703 270.351,170.703 270.875 C 170.703 271.400,170.879 271.938,171.094 272.070 C 171.603 272.385,171.603 278.787,171.094 279.102 C 170.879 279.234,170.703 279.850,170.703 280.469 C 170.703 281.088,170.527 281.703,170.312 281.836 C 170.098 281.969,169.922 282.421,169.922 282.841 C 169.922 283.759,169.251 284.988,168.085 286.208 C 167.612 286.702,166.938 287.767,166.588 288.573 C 166.237 289.379,165.789 290.344,165.592 290.717 C 165.395 291.090,165.234 291.739,165.234 292.159 C 165.234 292.579,165.059 293.031,164.844 293.164 C 164.629 293.297,164.453 293.824,164.453 294.336 C 164.453 294.848,164.277 295.375,164.062 295.508 C 163.848 295.641,163.672 296.093,163.672 296.513 C 163.672 296.933,163.496 297.625,163.281 298.052 C 163.066 298.479,162.715 299.177,162.500 299.604 C 162.285 300.031,162.109 300.699,162.109 301.088 C 162.109 301.478,161.953 301.964,161.761 302.168 C 160.551 303.458,160.549 321.547,161.760 322.832 C 161.952 323.036,162.109 323.685,162.109 324.274 C 162.109 324.863,162.285 325.453,162.500 325.586 C 162.715 325.719,162.891 326.246,162.891 326.758 C 162.891 327.270,163.066 327.797,163.281 327.930 C 163.496 328.062,163.672 328.678,163.672 329.297 C 163.672 329.916,163.848 330.531,164.063 330.664 C 164.277 330.797,164.453 331.247,164.453 331.664 C 164.453 332.081,164.629 332.422,164.844 332.422 C 165.059 332.422,165.234 332.776,165.234 333.208 C 165.234 333.641,165.410 334.344,165.625 334.771 C 165.840 335.198,166.191 335.896,166.406 336.323 C 166.621 336.750,166.797 337.453,166.797 337.885 C 166.797 338.318,166.973 338.672,167.188 338.672 C 167.402 338.672,167.578 339.006,167.578 339.413 C 167.578 339.821,168.131 341.184,168.807 342.441 C 169.483 343.698,170.230 345.121,170.467 345.602 C 170.704 346.084,171.030 346.480,171.191 346.481 C 171.353 346.483,171.484 346.714,171.484 346.994 C 171.484 347.592,173.962 350.391,174.491 350.391 C 174.690 350.391,175.202 350.698,175.630 351.074 C 176.506 351.845,177.386 352.378,180.460 354.000 L 182.599 355.129 188.663 354.939 C 191.998 354.834,195.489 354.627,196.421 354.478 C 197.494 354.307,198.274 354.368,198.549 354.643 C 198.789 354.882,199.303 355.078,199.693 355.078 C 200.378 355.078,200.767 355.225,202.631 356.189 C 203.112 356.437,203.936 356.641,204.464 356.641 C 204.991 356.641,205.531 356.816,205.664 357.031 C 205.797 357.246,207.027 357.422,208.398 357.422 C 209.770 357.422,211.000 357.598,211.133 357.813 C 211.447 358.322,216.287 358.322,216.602 357.812 C 216.734 357.598,217.184 357.422,217.601 357.422 C 218.018 357.422,218.359 357.246,218.359 357.031 C 218.359 356.816,218.672 356.641,219.054 356.641 C 219.437 356.641,220.003 356.289,220.312 355.859 C 220.622 355.430,221.087 355.078,221.344 355.078 C 222.003 355.078,225.391 351.619,225.391 350.946 C 225.391 350.640,225.537 350.391,225.715 350.391 C 225.894 350.391,226.289 349.907,226.594 349.316 C 226.898 348.726,227.238 348.154,227.348 348.047 C 227.577 347.825,229.201 344.438,229.783 342.969 C 229.995 342.432,230.325 341.687,230.514 341.314 C 230.704 340.941,230.859 340.204,230.859 339.677 C 230.859 339.149,231.035 338.609,231.250 338.477 C 231.465 338.344,231.641 337.553,231.641 336.719 C 231.641 335.885,231.816 335.094,232.031 334.961 C 232.246 334.828,232.422 333.510,232.422 332.031 C 232.422 330.553,232.598 329.234,232.813 329.102 C 233.027 328.969,233.203 328.517,233.203 328.097 C 233.203 327.677,233.379 326.984,233.594 326.557 C 233.809 326.130,234.160 325.432,234.375 325.005 C 234.590 324.579,234.766 323.886,234.766 323.466 C 234.766 323.046,234.941 322.594,235.156 322.461 C 235.371 322.328,235.547 321.713,235.547 321.094 C 235.547 320.475,235.723 319.859,235.938 319.727 C 236.152 319.594,236.328 318.979,236.328 318.359 C 236.328 317.740,236.504 317.125,236.719 316.992 C 236.955 316.846,237.109 314.066,237.109 309.961 C 237.109 305.856,236.955 303.076,236.719 302.930 C 236.504 302.797,236.328 302.006,236.328 301.172 C 236.328 300.338,236.152 299.547,235.938 299.414 C 235.723 299.281,235.547 298.666,235.547 298.047 C 235.547 297.428,235.371 296.812,235.156 296.680 C 234.941 296.547,234.766 296.020,234.766 295.508 C 234.766 294.996,234.590 294.469,234.375 294.336 C 234.160 294.203,233.984 293.236,233.984 292.188 C 233.984 291.139,233.809 290.172,233.594 290.039 C 233.379 289.906,233.203 288.852,233.203 287.695 C 233.203 286.539,233.027 285.484,232.813 285.352 C 232.598 285.219,232.422 284.340,232.422 283.398 C 232.422 282.457,232.246 281.578,232.031 281.445 C 230.790 280.678,232.097 275.467,234.082 273.267 C 234.458 272.850,234.766 272.278,234.766 271.997 C 234.766 271.715,234.912 271.484,235.090 271.484 C 235.269 271.484,235.664 271.001,235.969 270.410 C 237.144 268.133,240.381 266.625,241.211 267.969 C 241.344 268.184,241.871 268.359,242.383 268.359 C 242.895 268.359,243.422 268.535,243.555 268.750 C 243.687 268.965,244.140 269.141,244.560 269.141 C 244.980 269.141,245.628 269.294,246.001 269.482 C 246.374 269.670,247.383 270.167,248.242 270.586 C 249.102 271.005,250.200 271.554,250.684 271.807 C 251.167 272.059,251.912 272.441,252.338 272.656 C 252.765 272.871,253.785 273.047,254.604 273.047 C 255.423 273.047,256.289 273.242,256.527 273.480 C 256.800 273.754,257.654 273.818,258.851 273.656 C 260.821 273.389,266.568 272.869,272.266 272.441 C 274.092 272.304,275.753 272.032,275.957 271.838 C 276.161 271.643,276.898 271.484,277.594 271.484 C 278.290 271.484,278.969 271.309,279.102 271.094 C 279.234 270.879,279.774 270.703,280.302 270.703 C 280.829 270.703,281.610 270.527,282.037 270.313 C 282.463 270.098,283.162 269.746,283.588 269.531 C 284.015 269.316,284.630 269.141,284.956 269.141 C 285.281 269.141,285.547 268.995,285.547 268.816 C 285.547 268.637,286.030 268.243,286.621 267.940 C 287.212 267.636,287.980 267.079,288.327 266.702 C 288.675 266.324,289.246 266.016,289.597 266.016 C 289.947 266.016,290.234 265.840,290.234 265.625 C 290.234 265.410,290.663 265.234,291.188 265.234 C 291.712 265.234,292.250 265.059,292.383 264.844 C 292.516 264.629,293.141 264.453,293.773 264.453 C 294.405 264.453,294.922 264.277,294.922 264.063 C 294.922 263.848,295.351 263.672,295.875 263.672 C 296.400 263.672,296.938 263.496,297.070 263.281 C 297.203 263.066,297.829 262.891,298.461 262.891 C 299.092 262.891,299.609 262.715,299.609 262.500 C 299.609 262.285,300.038 262.109,300.563 262.109 C 301.087 262.109,301.625 261.934,301.758 261.719 C 301.891 261.504,302.418 261.328,302.930 261.328 C 303.441 261.328,303.969 261.152,304.102 260.938 C 304.234 260.723,304.684 260.547,305.101 260.547 C 305.518 260.547,305.859 260.371,305.859 260.156 C 305.859 259.941,306.106 259.766,306.408 259.766 C 308.024 259.766,310.746 257.750,313.893 254.224 C 315.059 252.918,317.947 250.391,318.275 250.390 C 318.429 250.389,319.170 249.862,319.922 249.219 C 320.674 248.575,321.435 248.048,321.613 248.048 C 321.791 248.047,322.582 247.387,323.370 246.581 C 324.159 245.774,325.771 244.327,326.953 243.363 C 328.135 242.400,329.189 241.522,329.297 241.412 C 329.670 241.029,331.840 239.794,332.520 239.579 C 332.896 239.460,333.203 239.207,333.203 239.017 C 333.203 238.827,333.439 238.672,333.727 238.672 C 334.379 238.672,337.891 235.396,337.891 234.788 C 337.891 234.543,338.242 233.965,338.672 233.504 C 339.102 233.043,339.453 232.435,339.453 232.153 C 339.453 231.871,339.629 231.641,339.844 231.641 C 340.059 231.641,340.234 231.289,340.234 230.859 C 340.234 230.430,340.410 230.078,340.625 230.078 C 340.840 230.078,341.016 229.727,341.016 229.297 C 341.016 228.867,341.191 228.516,341.406 228.516 C 341.621 228.516,341.797 228.274,341.797 227.979 C 341.797 227.684,343.555 225.658,345.703 223.476 C 347.852 221.294,349.609 219.345,349.609 219.144 C 349.609 218.943,350.767 217.585,352.183 216.127 C 353.598 214.669,355.224 212.861,355.796 212.110 C 356.368 211.358,357.144 210.402,357.520 209.985 C 357.896 209.569,358.203 208.997,358.203 208.715 C 358.203 208.434,358.379 208.203,358.594 208.203 C 358.809 208.203,358.984 207.852,358.984 207.422 C 358.984 206.992,359.160 206.641,359.375 206.641 C 359.590 206.641,359.766 206.289,359.766 205.859 C 359.766 205.430,359.941 205.078,360.156 205.078 C 360.371 205.078,360.547 204.737,360.547 204.320 C 360.547 203.903,360.723 203.453,360.938 203.320 C 361.152 203.188,361.328 201.957,361.328 200.586 C 361.328 199.215,361.504 197.984,361.719 197.852 C 361.934 197.719,362.109 197.016,362.109 196.289 C 362.109 195.562,362.285 194.859,362.500 194.727 C 362.715 194.594,362.891 194.161,362.891 193.764 C 362.891 192.907,364.366 189.962,365.332 188.892 C 365.708 188.475,366.016 187.903,366.016 187.622 C 366.016 187.340,366.191 187.109,366.406 187.109 C 366.621 187.109,366.801 186.890,366.806 186.621 C 366.810 186.353,367.158 185.693,367.578 185.156 C 367.998 184.619,368.346 183.784,368.351 183.301 C 368.355 182.817,368.535 182.422,368.750 182.422 C 368.965 182.422,369.139 182.202,369.137 181.934 C 369.135 181.535,371.136 177.144,372.696 174.126 C 372.889 173.753,373.047 173.105,373.047 172.685 C 373.047 172.265,373.223 171.812,373.438 171.680 C 373.652 171.547,373.828 170.756,373.828 169.922 C 373.828 169.088,374.004 168.297,374.219 168.164 C 374.727 167.850,374.727 164.572,374.219 164.258 C 374.004 164.125,373.828 163.158,373.828 162.109 C 373.828 161.061,373.652 160.094,373.438 159.961 C 373.210 159.820,373.047 157.613,373.047 154.664 C 373.047 151.555,373.197 149.609,373.438 149.609 C 373.652 149.609,373.828 149.092,373.828 148.461 C 373.828 147.829,374.004 147.203,374.219 147.070 C 374.434 146.938,374.609 146.410,374.609 145.898 C 374.609 145.387,374.785 144.859,375.000 144.727 C 375.215 144.594,375.391 144.066,375.391 143.555 C 375.391 143.043,375.566 142.516,375.781 142.383 C 375.996 142.250,376.172 141.537,376.172 140.797 C 376.172 140.058,376.348 139.453,376.563 139.453 C 376.777 139.453,376.953 138.750,376.953 137.891 C 376.953 137.031,377.129 136.328,377.344 136.328 C 377.559 136.328,377.734 135.372,377.734 134.203 C 377.734 133.034,377.910 131.969,378.125 131.836 C 378.651 131.511,378.651 117.317,378.125 116.992 C 377.910 116.859,377.734 116.156,377.734 115.430 C 377.734 114.703,377.559 114.000,377.344 113.867 C 377.129 113.734,376.953 113.285,376.953 112.868 C 376.953 112.451,376.777 112.109,376.563 112.109 C 376.348 112.109,376.172 111.758,376.172 111.328 C 376.172 110.898,375.996 110.547,375.781 110.547 C 375.566 110.547,375.391 110.195,375.391 109.766 C 375.391 109.336,375.215 108.984,375.000 108.984 C 374.785 108.984,374.609 108.633,374.609 108.203 C 374.609 107.773,374.463 107.422,374.285 107.422 C 374.106 107.422,373.714 106.938,373.413 106.348 C 370.504 100.631,363.919 98.922,360.742 103.059 C 359.741 104.363,358.365 105.750,356.608 107.227 C 355.324 108.305,352.050 112.868,350.837 115.270 C 350.555 115.826,349.813 116.881,349.187 117.613 C 348.561 118.346,348.048 119.113,348.048 119.319 C 348.047 119.771,341.786 125.930,338.302 128.906 C 334.885 131.824,327.366 139.334,326.176 141.016 C 324.931 142.774,323.208 144.491,321.484 145.691 C 320.732 146.214,320.029 146.738,319.922 146.856 C 319.718 147.080,318.197 147.966,317.188 148.450 C 316.865 148.604,315.838 149.104,314.904 149.560 C 313.971 150.017,312.960 150.391,312.658 150.391 C 312.356 150.391,312.109 150.566,312.109 150.781 C 312.109 150.996,311.768 151.172,311.351 151.172 C 310.934 151.172,310.484 151.348,310.352 151.562 C 310.219 151.777,309.845 151.953,309.520 151.953 C 308.950 151.953,305.797 153.942,304.771 154.948 C 304.495 155.219,303.748 155.749,303.111 156.125 C 302.474 156.501,301.953 156.947,301.953 157.115 C 301.953 157.284,301.723 157.422,301.441 157.422 C 301.159 157.422,300.551 157.773,300.090 158.203 C 299.629 158.633,299.107 158.984,298.930 158.984 C 298.753 158.984,297.731 159.819,296.658 160.840 C 295.586 161.860,293.526 163.293,292.081 164.023 C 290.635 164.754,289.453 165.501,289.453 165.683 C 289.453 165.866,289.216 166.016,288.925 166.016 C 288.635 166.016,287.875 166.499,287.236 167.090 C 285.816 168.404,284.579 169.141,283.794 169.141 C 283.469 169.141,283.203 169.316,283.203 169.531 C 283.203 170.599,277.463 169.956,276.164 168.743 C 274.376 167.072,275.652 161.687,278.611 158.422 C 278.988 158.006,279.297 157.435,279.297 157.153 C 279.297 156.871,279.443 156.641,279.621 156.641 C 279.800 156.641,280.196 156.157,280.500 155.566 C 280.805 154.976,281.362 154.151,281.738 153.735 C 282.114 153.318,282.422 152.825,282.422 152.639 C 282.422 152.453,283.477 151.265,284.766 150.000 C 286.055 148.735,287.109 147.426,287.109 147.092 C 287.109 146.758,287.285 146.484,287.500 146.484 C 287.715 146.484,287.891 146.133,287.891 145.703 C 287.891 145.273,288.066 144.922,288.281 144.922 C 288.496 144.922,288.672 144.570,288.672 144.141 C 288.672 143.711,288.848 143.359,289.063 143.359 C 289.277 143.359,289.453 143.008,289.453 142.578 C 289.453 142.148,289.599 141.797,289.778 141.797 C 289.956 141.797,290.352 141.313,290.657 140.723 C 290.962 140.132,291.519 139.308,291.895 138.891 C 292.271 138.475,292.578 137.903,292.578 137.622 C 292.578 137.340,292.754 137.109,292.969 137.109 C 293.184 137.109,293.359 136.758,293.359 136.328 C 293.359 135.898,293.535 135.547,293.750 135.547 C 293.965 135.547,294.141 135.206,294.141 134.789 C 294.141 134.372,294.316 133.922,294.531 133.789 C 294.746 133.656,294.922 133.119,294.922 132.594 C 294.922 132.070,295.098 131.641,295.313 131.641 C 295.527 131.641,295.703 131.289,295.703 130.859 C 295.703 130.430,295.835 130.077,295.996 130.075 C 296.387 130.071,297.266 128.144,297.266 127.289 C 297.266 126.915,297.441 126.500,297.656 126.367 C 297.871 126.234,298.047 125.609,298.047 124.977 C 298.047 124.345,298.223 123.828,298.438 123.828 C 298.652 123.828,298.828 123.135,298.828 122.289 C 298.828 121.442,299.004 120.641,299.219 120.508 C 299.727 120.194,299.727 116.916,299.219 116.602 C 299.004 116.469,298.828 115.766,298.828 115.039 C 298.828 114.312,298.652 113.609,298.438 113.477 C 298.223 113.344,298.047 112.641,298.047 111.914 C 298.047 111.187,297.871 110.484,297.656 110.352 C 297.441 110.219,297.266 109.505,297.266 108.766 C 297.266 108.027,297.090 107.422,296.875 107.422 C 296.660 107.422,296.484 106.905,296.484 106.273 C 296.484 105.641,296.309 105.016,296.094 104.883 C 295.879 104.750,295.703 104.212,295.703 103.688 C 295.703 103.163,295.527 102.734,295.313 102.734 C 295.098 102.734,294.922 102.305,294.922 101.781 C 294.922 101.256,294.746 100.719,294.531 100.586 C 294.316 100.453,294.141 99.838,294.141 99.219 C 294.141 98.600,293.965 97.984,293.750 97.852 C 293.535 97.719,293.359 97.181,293.359 96.657 C 293.359 96.132,293.184 95.703,292.969 95.703 C 292.754 95.703,292.578 95.357,292.578 94.934 C 292.578 94.511,292.227 93.538,291.797 92.773 C 291.367 92.008,291.016 91.124,291.016 90.808 C 291.016 90.493,290.840 90.234,290.625 90.234 C 290.410 90.234,290.234 89.883,290.234 89.453 C 290.234 89.023,290.059 88.672,289.844 88.672 C 289.629 88.672,289.453 88.434,289.453 88.144 C 289.453 87.853,288.926 87.064,288.281 86.390 C 287.637 85.715,287.109 85.029,287.109 84.865 C 287.109 84.700,286.449 83.864,285.641 83.006 C 284.834 82.147,283.737 80.830,283.204 80.078 C 281.806 78.108,264.760 61.163,263.320 60.312 C 262.654 59.919,262.109 59.459,262.109 59.291 C 262.109 59.122,261.838 58.984,261.507 58.984 C 261.176 58.984,260.527 58.633,260.066 58.203 C 259.605 57.773,258.997 57.422,258.715 57.422 C 258.434 57.422,258.203 57.246,258.203 57.031 C 258.203 56.816,257.964 56.641,257.671 56.641 C 257.379 56.641,255.772 55.937,254.102 55.078 C 252.431 54.219,250.747 53.516,250.360 53.516 C 249.972 53.516,249.547 53.340,249.414 53.125 C 249.281 52.910,248.744 52.734,248.219 52.734 C 247.695 52.734,247.266 52.559,247.266 52.344 C 247.266 52.129,247.037 51.953,246.758 51.953 C 246.039 51.953,244.147 51.034,244.144 50.684 C 244.142 50.522,243.789 50.391,243.359 50.391 C 242.930 50.391,242.578 50.215,242.578 50.000 C 242.578 49.785,242.312 49.609,241.987 49.609 C 241.662 49.609,241.046 49.434,240.620 49.219 C 240.193 49.004,239.495 48.652,239.068 48.438 C 238.641 48.223,238.026 48.047,237.701 48.047 C 237.375 48.047,237.109 47.871,237.109 47.656 C 237.109 47.441,236.768 47.266,236.351 47.266 C 235.934 47.266,235.484 47.090,235.352 46.875 C 235.219 46.660,234.428 46.484,233.594 46.484 C 232.760 46.484,231.969 46.309,231.836 46.094 C 231.703 45.879,230.550 45.703,229.274 45.703 C 227.987 45.703,226.953 45.529,226.953 45.313 C 226.953 45.098,226.348 44.922,225.609 44.922 C 224.870 44.922,224.156 44.746,224.023 44.531 C 223.891 44.316,223.275 44.141,222.656 44.141 C 222.037 44.141,221.422 43.965,221.289 43.750 C 221.156 43.535,220.453 43.359,219.727 43.359 C 219.000 43.359,218.297 43.184,218.164 42.969 C 218.031 42.754,216.537 42.578,214.844 42.578 C 213.150 42.578,211.656 42.402,211.523 42.188 C 211.391 41.973,210.624 41.797,209.821 41.797 C 209.017 41.797,208.192 41.639,207.988 41.446 C 207.147 40.651,192.812 39.931,192.361 40.661 M207.519 42.347 C 208.754 42.683,211.830 43.224,214.355 43.547 C 218.801 44.118,220.188 44.394,223.024 45.274 C 223.763 45.504,225.961 45.960,227.907 46.289 C 234.972 47.482,235.327 47.599,242.773 51.183 C 244.922 52.217,247.653 53.412,248.842 53.839 C 257.577 56.970,261.895 59.887,271.094 68.866 C 284.556 82.007,289.289 88.283,292.512 97.266 C 299.378 116.399,299.695 120.267,295.175 129.748 C 294.391 131.392,293.750 132.947,293.750 133.203 C 293.750 133.776,291.777 137.405,290.277 139.591 C 289.665 140.482,288.418 142.697,287.506 144.514 C 286.492 146.535,284.982 148.734,283.619 150.178 C 277.448 156.714,272.689 166.283,274.203 169.111 C 275.868 172.222,282.750 171.620,287.754 167.925 C 289.212 166.849,291.553 165.363,292.956 164.622 C 294.360 163.881,296.211 162.609,297.070 161.795 C 299.981 159.039,308.738 153.429,314.258 150.784 C 320.482 147.802,323.988 145.329,326.423 142.205 C 328.147 139.992,333.476 134.858,341.186 127.981 C 347.114 122.694,349.167 120.240,353.322 113.477 C 355.515 109.907,363.044 102.126,364.710 101.707 C 370.454 100.266,378.125 112.753,378.125 123.545 C 378.125 129.123,376.142 139.187,373.721 145.898 C 371.742 151.384,371.588 155.230,373.077 161.989 C 374.086 166.570,373.191 171.019,369.931 177.639 C 368.852 179.831,367.969 181.810,367.969 182.038 C 367.969 182.662,366.477 185.472,364.862 187.891 C 362.458 191.491,361.485 194.291,360.620 200.093 C 360.034 204.026,357.656 208.607,354.261 212.342 C 352.718 214.040,350.397 216.748,349.102 218.359 C 347.808 219.971,345.486 222.520,343.941 224.023 C 342.397 225.527,340.805 227.461,340.405 228.320 C 337.627 234.277,335.300 237.018,331.308 239.033 C 330.039 239.674,327.090 241.900,324.755 243.980 C 322.421 246.060,319.264 248.604,317.739 249.633 C 316.215 250.661,313.800 252.807,312.373 254.402 C 309.098 258.061,306.174 259.484,293.555 263.559 C 291.002 264.384,288.372 265.544,287.075 266.418 C 282.283 269.646,277.074 271.105,267.383 271.933 C 256.720 272.843,255.029 272.727,251.171 270.821 C 240.040 265.320,238.093 265.416,233.929 271.669 C 230.735 276.466,230.118 278.611,231.042 281.714 C 231.382 282.855,232.003 285.994,232.423 288.688 C 232.843 291.383,233.607 294.914,234.122 296.536 C 237.091 305.892,236.719 315.687,233.022 325.510 C 232.512 326.865,231.896 329.458,231.654 331.272 C 229.546 347.059,221.736 357.613,212.711 356.874 C 205.730 356.302,203.321 355.717,200.195 353.834 C 198.751 352.964,197.123 352.945,192.914 353.749 C 180.015 356.215,172.520 350.772,166.773 334.766 C 161.451 319.938,160.367 311.126,162.811 302.539 C 165.194 294.169,167.138 289.145,168.809 287.035 C 172.641 282.196,173.355 272.426,170.210 267.860 C 168.079 264.766,164.721 264.285,159.713 266.358 C 149.767 270.476,145.329 271.270,140.867 269.730 L 137.790 268.668 134.618 269.666 C 129.743 271.198,129.244 271.232,125.095 270.315 C 119.291 269.032,118.839 268.846,114.648 266.020 C 110.849 263.458,108.293 262.364,101.466 260.379 C 99.805 259.896,98.941 259.374,98.146 258.373 C 97.448 257.495,96.315 256.737,94.922 256.217 C 93.740 255.776,91.265 254.392,89.422 253.141 C 87.579 251.890,84.767 250.258,83.172 249.513 C 79.969 248.018,73.699 242.804,70.903 239.311 C 70.019 238.207,68.251 236.023,66.973 234.455 C 65.694 232.888,64.067 230.867,63.357 229.963 C 61.564 227.681,56.049 221.369,53.761 218.980 C 52.715 217.886,51.401 216.289,50.842 215.430 C 50.282 214.570,48.831 212.637,47.616 211.133 C 44.124 206.812,42.428 203.166,42.458 200.046 C 42.493 196.318,40.383 190.954,37.522 187.500 C 36.721 186.533,34.981 184.016,33.654 181.906 C 32.327 179.797,30.399 177.029,29.369 175.756 C 24.507 169.748,23.209 163.716,25.213 156.445 C 26.369 152.252,26.083 148.453,23.933 139.453 C 22.428 133.152,23.376 116.075,25.461 111.914 C 30.518 101.824,38.135 99.708,43.252 106.972 C 44.259 108.401,45.861 110.449,46.813 111.523 C 49.189 114.206,49.432 114.624,50.766 118.316 C 52.616 123.439,56.886 128.716,64.254 134.982 C 66.955 137.279,70.716 140.612,71.094 141.043 C 71.201 141.166,72.520 142.207,74.023 143.356 C 75.527 144.505,77.247 145.848,77.844 146.341 C 78.442 146.833,80.112 147.859,81.555 148.619 C 84.269 150.050,87.021 152.060,91.650 155.993 C 93.127 157.249,96.006 159.114,98.047 160.139 C 105.131 163.695,108.413 165.488,111.180 167.312 C 116.653 170.918,125.101 173.872,128.252 173.281 C 134.604 172.089,131.047 159.239,122.024 150.781 C 117.664 146.695,113.635 142.377,112.909 141.016 C 112.508 140.264,111.317 138.578,110.262 137.269 C 108.186 134.693,102.976 124.488,102.104 121.289 C 100.301 114.675,102.990 100.244,107.235 93.750 C 108.147 92.354,109.616 89.953,110.498 88.415 C 111.468 86.724,113.038 84.772,114.473 83.474 C 115.777 82.293,117.534 80.403,118.377 79.274 C 119.220 78.144,122.009 75.006,124.575 72.301 C 127.141 69.596,129.761 66.665,130.396 65.788 C 132.542 62.825,138.350 59.221,143.840 57.447 C 144.642 57.188,146.619 56.113,148.234 55.058 C 151.936 52.642,153.653 51.766,155.847 51.175 C 156.805 50.917,158.913 50.048,160.532 49.244 C 164.343 47.351,167.805 46.468,174.414 45.700 C 179.205 45.144,182.930 44.416,186.523 43.335 C 188.027 42.882,190.049 42.280,191.016 41.997 C 193.457 41.283,204.471 41.516,207.519 42.347 M189.844 49.641 C 150.434 53.582,117.006 78.997,109.591 110.657 C 107.565 119.308,107.659 119.765,112.994 127.251 C 114.791 129.773,117.473 133.594,118.953 135.742 C 120.433 137.891,125.270 144.482,129.701 150.391 C 134.132 156.299,139.489 163.682,141.605 166.797 C 143.721 169.912,147.238 174.922,149.420 177.930 C 165.043 199.458,164.449 196.731,156.866 212.075 C 148.692 228.616,148.659 228.486,163.966 239.542 C 177.044 248.988,176.152 247.558,176.951 260.352 C 177.178 264.004,177.461 267.915,177.578 269.043 L 177.791 271.094 180.692 271.094 L 183.594 271.094 183.594 253.156 L 183.594 235.218 182.324 234.950 C 181.087 234.689,175.759 230.911,168.457 225.118 C 163.685 221.332,163.799 219.772,169.720 207.813 C 173.755 199.664,173.800 199.812,162.534 184.570 C 154.120 173.188,149.240 166.473,140.829 154.706 C 136.152 148.163,130.715 140.604,128.747 137.909 C 114.285 118.108,115.018 119.463,117.165 116.499 C 122.029 109.785,132.146 109.273,140.062 115.340 C 142.968 117.568,144.061 119.580,150.223 134.046 C 153.549 141.854,157.400 150.791,158.781 153.906 C 160.161 157.021,164.181 166.514,167.714 175.000 C 174.942 192.360,176.709 196.348,177.616 197.351 C 179.136 199.030,181.653 197.288,181.627 194.576 C 181.612 193.002,181.846 193.611,173.081 172.266 C 169.596 163.779,165.420 153.584,163.801 149.609 C 162.181 145.635,158.588 136.853,155.817 130.095 L 150.778 117.806 152.440 116.110 C 157.390 111.057,165.449 109.741,172.070 112.905 C 178.091 115.783,179.457 118.346,180.479 128.689 C 180.711 131.040,181.407 135.610,182.026 138.845 C 183.819 148.220,185.794 161.642,187.520 176.172 C 189.239 190.644,189.731 192.730,191.537 193.183 C 194.737 193.986,195.608 190.468,194.335 181.886 C 192.034 166.371,186.337 122.373,186.332 120.078 C 186.310 110.680,204.740 108.228,212.459 116.602 L 214.146 118.433 213.964 121.033 C 213.863 122.463,213.230 127.852,212.556 133.008 C 211.883 138.164,210.626 148.096,209.764 155.078 C 208.901 162.061,207.662 171.025,207.011 175.000 C 204.881 187.990,205.046 192.634,207.646 192.890 C 210.403 193.162,210.702 192.071,213.091 173.047 C 214.538 161.525,216.377 149.183,218.358 137.695 C 218.988 134.043,219.685 128.909,219.907 126.287 C 220.557 118.595,222.625 114.838,227.450 112.579 C 234.257 109.393,243.801 111.383,247.652 116.791 L 248.441 117.899 242.914 131.899 C 239.875 139.599,233.614 155.303,229.002 166.797 C 217.208 196.186,217.106 196.540,219.936 198.054 C 222.068 199.196,223.123 197.099,235.364 167.383 C 238.020 160.938,240.928 153.994,241.827 151.953 C 242.727 149.912,245.715 142.651,248.467 135.818 C 254.067 121.918,255.518 119.042,258.374 116.186 C 264.925 109.632,275.718 109.441,281.557 115.775 C 283.644 118.039,283.628 118.791,281.428 121.814 C 280.452 123.155,276.879 128.332,273.488 133.318 C 270.097 138.304,263.105 148.359,257.951 155.664 C 252.796 162.969,247.106 171.055,245.305 173.633 C 243.505 176.211,239.903 181.133,237.300 184.570 C 227.919 196.963,226.358 200.953,229.117 205.494 C 231.803 209.915,235.547 218.958,235.547 221.022 C 235.547 222.162,220.352 234.246,217.676 235.235 L 216.406 235.704 216.406 252.781 C 216.406 262.173,216.300 270.136,216.169 270.476 C 215.965 271.008,216.370 271.094,219.075 271.094 L 222.218 271.094 222.425 269.434 C 222.539 268.521,222.737 265.664,222.865 263.086 C 223.256 255.239,223.762 250.183,224.268 249.071 C 224.706 248.111,231.109 243.134,241.025 236.047 C 250.761 229.090,251.015 226.572,243.415 212.394 C 237.272 200.933,236.771 199.188,238.577 195.508 C 240.139 192.326,256.438 168.887,268.774 152.084 C 271.902 147.822,276.461 141.436,278.904 137.891 C 281.347 134.346,284.603 129.688,286.138 127.539 C 292.463 118.691,292.689 117.829,290.831 109.642 C 286.959 92.569,270.675 73.161,250.784 61.910 C 234.266 52.566,209.815 47.644,189.844 49.641 M33.818 110.021 C 32.235 114.117,31.295 124.160,32.000 129.439 C 34.749 150.012,50.488 162.443,103.516 185.920 C 113.606 190.388,119.531 193.234,119.531 193.613 C 119.531 194.918,102.119 189.702,89.258 184.545 C 69.028 176.434,53.711 169.473,45.461 164.642 C 41.147 162.117,39.660 161.045,35.840 157.711 L 33.203 155.410 33.206 158.271 C 33.215 166.946,37.172 176.300,43.521 182.652 C 51.816 190.951,73.668 198.097,116.155 206.403 C 132.909 209.678,118.709 209.687,95.258 206.416 C 74.725 203.552,58.132 199.810,49.533 196.102 C 45.303 194.279,45.295 194.281,46.488 197.173 C 48.922 203.070,52.250 207.232,58.122 211.726 C 70.305 221.049,77.619 222.229,115.137 220.926 C 122.108 220.683,125.000 220.706,125.000 221.002 C 125.000 221.651,120.479 223.001,116.797 223.451 C 114.971 223.675,113.213 223.934,112.891 224.028 C 109.194 225.098,88.738 226.560,77.229 226.576 L 67.543 226.590 68.439 228.182 C 69.684 230.399,74.017 234.379,77.322 236.342 C 85.121 240.975,90.961 241.601,103.320 239.128 C 107.617 238.268,112.451 237.352,114.063 237.092 C 115.674 236.832,119.014 236.024,121.484 235.297 C 126.264 233.889,130.078 233.246,130.078 233.848 C 130.078 236.368,105.895 244.347,93.448 245.934 C 85.851 246.903,99.154 253.715,109.570 254.189 C 115.764 254.471,117.378 253.892,130.469 246.694 C 135.677 243.830,136.082 243.680,136.926 244.296 C 138.529 245.468,122.825 257.780,117.708 259.363 L 115.490 260.050 117.692 260.873 C 126.497 264.168,133.138 262.673,142.330 255.325 C 148.138 250.682,149.403 250.667,146.638 255.273 C 144.339 259.105,142.516 261.276,140.337 262.776 C 138.462 264.068,137.813 264.831,138.574 264.852 C 138.735 264.856,139.937 265.014,141.245 265.204 C 147.641 266.129,153.057 263.086,159.065 255.192 C 160.601 253.175,161.149 252.735,162.386 252.529 C 165.016 252.092,165.032 251.976,162.656 250.548 C 143.944 239.295,137.673 223.330,145.711 207.406 C 151.206 196.520,148.434 191.651,132.617 184.409 C 84.206 162.242,51.460 137.753,35.701 111.929 C 34.400 109.798,34.044 109.437,33.818 110.021 M365.291 111.607 C 362.516 117.105,348.704 132.556,338.918 141.112 C 323.953 154.194,297.062 170.790,274.144 181.088 C 250.462 191.729,248.825 194.026,254.816 208.217 C 258.950 218.010,258.776 226.705,254.294 234.380 C 251.301 239.504,242.047 248.864,238.069 250.790 L 236.243 251.673 237.751 252.187 C 238.580 252.470,239.785 253.305,240.430 254.043 C 241.074 254.781,242.561 256.485,243.735 257.831 C 248.529 263.332,256.666 266.579,261.205 264.804 L 262.305 264.374 261.133 263.539 C 260.488 263.080,258.989 261.735,257.800 260.551 C 253.799 256.565,251.018 249.405,254.626 252.379 C 263.365 259.583,266.535 261.415,271.586 262.181 C 275.246 262.737,279.865 262.231,283.347 260.893 L 285.639 260.013 283.281 259.367 C 277.814 257.870,261.323 245.577,263.070 244.300 C 263.893 243.698,264.007 243.744,270.702 247.377 C 280.914 252.919,283.562 253.940,288.407 254.206 C 295.847 254.614,303.380 252.376,307.483 248.538 C 309.698 246.466,309.802 246.094,308.161 246.094 C 302.430 246.094,279.200 239.459,272.879 236.016 C 267.719 233.206,270.215 232.782,277.932 235.157 C 280.040 235.806,283.802 236.703,286.292 237.151 C 288.783 237.599,293.819 238.564,297.484 239.295 C 312.359 242.263,323.815 239.000,331.100 229.720 C 333.541 226.610,333.941 226.768,323.340 226.654 C 305.753 226.464,287.902 224.716,278.201 222.235 C 272.771 220.846,273.685 220.614,283.594 220.863 C 288.643 220.989,297.238 221.201,302.695 221.333 C 325.868 221.892,335.193 219.080,346.803 208.031 C 350.558 204.458,355.077 197.458,355.078 195.215 C 355.078 194.356,355.308 194.320,351.909 195.722 C 339.566 200.816,304.306 207.581,285.156 208.528 C 273.524 209.104,274.102 208.199,287.004 205.636 C 291.896 204.664,300.645 202.746,306.445 201.372 C 312.246 199.999,318.135 198.682,319.531 198.445 C 328.718 196.884,343.039 191.764,350.977 187.202 C 359.894 182.077,366.132 171.470,367.142 159.715 C 367.570 154.741,367.755 154.878,364.567 157.810 C 358.150 163.712,343.789 171.363,325.325 178.718 C 321.172 180.372,314.346 183.089,310.156 184.754 C 300.400 188.633,287.402 192.851,283.008 193.564 C 282.148 193.704,281.138 193.903,280.762 194.006 C 280.386 194.109,280.078 194.035,280.078 193.842 C 280.078 193.306,285.449 190.695,297.070 185.582 C 309.574 180.081,335.943 167.099,341.914 163.503 C 364.302 150.023,372.075 134.891,367.598 113.503 C 366.598 108.726,366.702 108.812,365.291 111.607 M196.757 201.209 C 183.264 204.385,181.117 222.211,193.491 228.327 C 199.888 231.488,206.248 230.271,211.157 224.945 C 220.690 214.602,210.590 197.954,196.757 201.209 M191.016 253.223 L 191.015 270.898 200.000 270.898 L 208.984 270.898 208.984 253.223 L 208.984 235.547 200.000 235.547 L 191.016 235.547 191.016 253.223 M173.829 292.090 C 167.807 310.480,167.726 307.946,175.175 333.984 C 179.529 349.204,184.408 352.946,191.527 346.527 C 195.526 342.922,195.472 341.539,190.638 323.565 L 186.746 309.091 190.570 299.565 L 194.394 290.039 199.812 290.147 C 202.791 290.206,205.282 290.308,205.348 290.374 C 205.413 290.439,206.954 294.822,208.773 300.114 L 212.079 309.735 207.407 325.017 C 204.614 334.150,202.735 340.954,202.737 341.927 C 202.750 351.950,214.931 353.455,219.515 344.001 C 221.593 339.715,229.689 311.093,229.684 308.051 C 229.682 306.674,228.533 302.194,225.985 293.621 C 223.952 286.783,222.177 280.587,222.039 279.852 L 221.788 278.516 200.031 278.516 L 178.274 278.516 173.829 292.090 " stroke="none" fill="#e3b404" fill-rule="evenodd"></path><path id="path2" d="M193.652 41.689 C 194.351 41.775,195.493 41.775,196.191 41.689 C 196.890 41.602,196.318 41.531,194.922 41.531 C 193.525 41.531,192.954 41.602,193.652 41.689 M200.884 41.687 C 201.478 41.776,202.357 41.774,202.837 41.681 C 203.318 41.589,202.832 41.515,201.758 41.518 C 200.684 41.521,200.291 41.597,200.884 41.687 M131.818 64.160 L 130.273 65.820 131.934 64.276 C 133.478 62.840,133.773 62.500,133.478 62.500 C 133.414 62.500,132.667 63.247,131.818 64.160 M127.323 69.434 L 125.977 70.898 127.441 69.552 C 128.805 68.299,129.086 67.969,128.788 67.969 C 128.722 67.969,128.063 68.628,127.323 69.434 M272.266 70.508 C 272.994 71.260,273.679 71.875,273.786 71.875 C 273.893 71.875,273.385 71.260,272.656 70.508 C 271.927 69.756,271.243 69.141,271.136 69.141 C 271.028 69.141,271.537 69.756,272.266 70.508 M277.930 75.781 C 278.769 76.641,279.543 77.344,279.651 77.344 C 279.758 77.344,279.159 76.641,278.320 75.781 C 277.481 74.922,276.707 74.219,276.599 74.219 C 276.492 74.219,277.091 74.922,277.930 75.781 M356.620 108.887 L 355.273 110.352 356.738 109.005 C 358.102 107.752,358.383 107.422,358.084 107.422 C 358.019 107.422,357.360 108.081,356.620 108.887 M45.313 110.278 C 45.313 110.346,45.884 110.917,46.582 111.548 L 47.852 112.695 46.704 111.426 C 45.635 110.242,45.313 109.977,45.313 110.278 M101.705 116.211 C 101.706 118.359,101.772 119.188,101.851 118.053 C 101.930 116.918,101.929 115.160,101.849 114.147 C 101.769 113.134,101.704 114.063,101.705 116.211 M291.888 116.797 C 291.888 117.549,291.968 117.856,292.066 117.480 C 292.164 117.104,292.164 116.489,292.066 116.113 C 291.968 115.737,291.888 116.045,291.888 116.797 M343.530 125.879 L 342.383 127.148 343.652 126.001 C 344.351 125.370,344.922 124.799,344.922 124.732 C 344.922 124.430,344.600 124.696,343.530 125.879 M339.624 129.395 L 338.477 130.664 339.746 129.517 C 340.444 128.886,341.016 128.314,341.016 128.247 C 341.016 127.945,340.693 128.211,339.624 129.395 M23.175 131.055 C 23.177 132.559,23.247 133.126,23.332 132.316 C 23.417 131.505,23.415 130.275,23.329 129.581 C 23.243 128.888,23.173 129.551,23.175 131.055 M58.577 130.176 C 60.196 131.900,60.547 132.211,60.547 131.917 C 60.547 131.855,59.712 131.020,58.691 130.062 L 56.836 128.320 58.577 130.176 M328.906 139.258 C 327.957 140.225,327.269 141.016,327.376 141.016 C 327.484 141.016,328.348 140.225,329.297 139.258 C 330.246 138.291,330.934 137.500,330.827 137.500 C 330.719 137.500,329.855 138.291,328.906 139.258 M117.969 147.070 C 118.698 147.822,119.382 148.438,119.489 148.438 C 119.597 148.438,119.088 147.822,118.359 147.070 C 117.631 146.318,116.946 145.703,116.839 145.703 C 116.732 145.703,117.240 146.318,117.969 147.070 M283.594 149.805 C 282.645 150.771,281.956 151.563,282.064 151.563 C 282.171 151.563,283.036 150.771,283.984 149.805 C 284.933 148.838,285.622 148.047,285.514 148.047 C 285.407 148.047,284.543 148.838,283.594 149.805 M88.281 153.247 C 88.281 153.314,88.853 153.886,89.551 154.517 L 90.820 155.664 89.673 154.395 C 88.604 153.211,88.281 152.945,88.281 153.247 M296.655 162.207 L 295.508 163.477 296.777 162.329 C 297.476 161.698,298.047 161.127,298.047 161.060 C 298.047 160.758,297.725 161.024,296.655 162.207 M118.457 208.874 C 119.048 208.963,120.015 208.963,120.605 208.874 C 121.196 208.784,120.713 208.711,119.531 208.711 C 118.350 208.711,117.866 208.784,118.457 208.874 M327.837 226.843 C 328.431 226.933,329.310 226.930,329.791 226.837 C 330.271 226.745,329.785 226.671,328.711 226.674 C 327.637 226.677,327.244 226.753,327.837 226.843 M183.774 253.125 C 183.774 263.115,183.825 267.202,183.886 262.207 C 183.948 257.212,183.948 249.038,183.886 244.043 C 183.825 239.048,183.774 243.135,183.774 253.125 M195.410 235.448 C 197.935 235.516,202.065 235.516,204.590 235.448 C 207.114 235.380,205.049 235.324,200.000 235.324 C 194.951 235.324,192.886 235.380,195.410 235.448 M216.195 252.930 C 216.195 262.598,216.246 266.497,216.308 261.594 C 216.370 256.692,216.370 248.782,216.308 244.016 C 216.246 239.251,216.195 243.262,216.195 252.930 M325.561 243.066 L 324.414 244.336 325.684 243.189 C 326.867 242.119,327.133 241.797,326.831 241.797 C 326.764 241.797,326.192 242.368,325.561 243.066 M128.223 270.972 C 128.599 271.071,129.214 271.071,129.590 270.972 C 129.966 270.874,129.658 270.794,128.906 270.794 C 128.154 270.794,127.847 270.874,128.223 270.972 M194.447 270.992 C 195.582 271.071,197.340 271.070,198.353 270.990 C 199.366 270.910,198.438 270.845,196.289 270.846 C 194.141 270.847,193.312 270.912,194.447 270.992 M204.395 270.988 C 205.200 271.072,206.519 271.072,207.324 270.988 C 208.130 270.903,207.471 270.834,205.859 270.834 C 204.248 270.834,203.589 270.903,204.395 270.988 M267.485 271.761 C 267.971 271.854,268.674 271.851,269.048 271.753 C 269.421 271.655,269.023 271.579,268.164 271.583 C 267.305 271.587,266.999 271.667,267.485 271.761 M172.383 275.781 C 172.383 276.963,172.456 277.446,172.545 276.855 C 172.635 276.265,172.635 275.298,172.545 274.707 C 172.456 274.116,172.383 274.600,172.383 275.781 M181.719 278.416 C 183.588 278.487,186.752 278.487,188.750 278.416 C 190.748 278.345,189.219 278.287,185.352 278.286 C 181.484 278.286,179.850 278.344,181.719 278.416 M236.055 311.328 C 236.055 312.510,236.128 312.993,236.217 312.402 C 236.307 311.812,236.307 310.845,236.217 310.254 C 236.128 309.663,236.055 310.146,236.055 311.328 M196.782 353.011 C 197.268 353.104,197.971 353.101,198.344 353.003 C 198.718 352.905,198.320 352.829,197.461 352.833 C 196.602 352.837,196.296 352.917,196.782 353.011 " stroke="none" fill="#866f22" fill-rule="evenodd"></path><path id="path3" d="M190.234 42.426 C 189.268 42.743,186.543 43.508,184.180 44.126 C 181.816 44.745,180.203 45.265,180.593 45.282 C 181.444 45.319,188.169 43.641,190.576 42.791 C 193.223 41.857,203.435 41.952,207.357 42.948 C 209.796 43.568,217.706 44.645,218.694 44.492 C 219.480 44.371,216.700 43.822,215.130 43.789 C 214.106 43.768,211.235 43.311,208.751 42.773 C 203.298 41.595,193.339 41.407,190.234 42.426 M221.963 45.508 C 223.623 46.017,225.820 46.528,226.846 46.643 L 228.711 46.853 227.148 46.458 C 226.289 46.240,224.327 45.718,222.788 45.297 C 218.895 44.232,218.299 44.385,221.963 45.508 M175.195 45.703 L 173.633 45.983 175.000 46.016 C 175.752 46.034,177.070 45.903,177.930 45.726 L 179.492 45.402 178.125 45.413 C 177.373 45.419,176.055 45.549,175.195 45.703 M169.922 46.484 C 168.551 46.923,169.984 46.938,172.070 46.507 L 173.633 46.184 172.266 46.178 C 171.514 46.174,170.459 46.312,169.922 46.484 M165.234 47.436 C 164.268 47.706,162.246 48.549,160.742 49.310 C 159.237 50.071,157.106 50.961,156.006 51.287 C 153.519 52.026,152.130 52.735,148.519 55.109 C 146.952 56.139,145.019 57.191,144.222 57.447 C 138.541 59.275,133.445 62.473,130.443 66.093 C 129.321 67.447,126.488 70.548,124.148 72.985 C 121.808 75.422,119.220 78.322,118.398 79.431 C 117.575 80.539,115.946 82.324,114.776 83.398 C 112.857 85.162,110.156 88.597,110.156 89.276 C 110.156 89.423,109.398 90.710,108.471 92.135 C 105.713 96.374,105.646 96.510,104.130 100.910 C 102.413 105.896,101.794 110.830,102.041 117.578 L 102.205 122.070 105.426 128.608 C 107.197 132.203,109.272 135.894,110.037 136.810 C 110.802 137.725,112.034 139.441,112.776 140.624 C 113.518 141.806,116.539 145.146,119.489 148.047 C 128.563 156.967,133.033 165.143,131.648 170.287 C 130.827 173.334,128.846 173.915,122.852 172.867 C 122.207 172.754,122.559 172.921,123.633 173.238 C 137.137 177.216,135.111 163.045,120.038 148.093 C 117.140 145.218,114.140 141.879,113.371 140.671 C 112.603 139.464,111.308 137.682,110.495 136.712 C 109.681 135.741,107.563 131.962,105.789 128.313 L 102.564 121.680 102.420 117.267 C 102.159 109.275,103.898 100.367,106.582 95.946 C 106.989 95.275,108.489 92.793,109.916 90.430 C 111.646 87.564,113.335 85.352,114.989 83.789 C 116.353 82.500,118.032 80.654,118.721 79.688 C 120.004 77.884,129.539 67.371,132.977 63.969 C 134.836 62.130,139.259 59.703,144.118 57.857 C 145.170 57.457,147.613 56.127,149.547 54.901 C 151.482 53.675,154.177 52.327,155.536 51.905 C 156.896 51.484,159.204 50.521,160.665 49.767 C 162.127 49.012,164.588 48.068,166.134 47.668 C 167.680 47.269,168.506 46.943,167.969 46.943 C 167.432 46.944,166.201 47.166,165.234 47.436 M229.329 47.017 C 229.419 47.096,230.459 47.265,231.641 47.394 C 233.044 47.547,233.518 47.507,233.008 47.279 C 232.268 46.949,228.984 46.715,229.329 47.017 M237.635 49.264 C 238.460 49.700,239.227 49.966,239.337 49.856 C 239.528 49.665,236.895 48.418,236.378 48.455 C 236.243 48.464,236.809 48.829,237.635 49.264 M239.876 50.150 C 240.294 50.534,245.851 53.158,245.508 52.810 C 245.049 52.343,240.475 50.000,240.023 50.000 C 239.853 50.000,239.787 50.067,239.876 50.150 M247.070 53.695 C 249.034 54.542,250.300 54.736,248.633 53.934 C 247.773 53.521,246.807 53.184,246.484 53.186 C 246.162 53.187,246.426 53.416,247.070 53.695 M254.883 56.894 C 260.930 60.056,262.427 61.227,270.703 69.270 C 280.862 79.142,287.209 86.621,289.552 91.482 C 291.464 95.448,292.005 95.835,290.261 91.988 C 286.504 83.703,266.461 62.817,257.664 58.022 C 255.876 57.048,254.255 56.257,254.062 56.266 C 253.869 56.274,254.238 56.557,254.883 56.894 M292.299 98.047 C 293.120 100.871,295.857 108.570,295.992 108.435 C 296.194 108.233,293.066 98.901,292.510 98.047 C 292.171 97.526,292.147 97.526,292.299 98.047 M363.867 102.308 C 363.008 102.708,361.953 103.590,361.523 104.268 C 361.094 104.945,359.720 106.394,358.470 107.487 C 356.903 108.857,354.925 111.390,352.099 115.645 C 347.773 122.158,346.379 123.671,337.499 131.496 C 333.304 135.192,328.028 140.450,325.780 143.174 C 325.244 143.825,323.838 145.132,322.656 146.079 C 320.079 148.145,319.503 148.675,320.313 148.231 C 321.960 147.329,325.639 144.136,326.997 142.430 C 328.628 140.381,334.770 134.518,342.390 127.734 C 347.126 123.518,349.185 121.036,353.579 114.247 C 357.141 108.743,363.531 102.344,365.464 102.344 C 367.343 102.344,369.561 103.563,371.302 105.553 C 372.647 107.090,372.706 107.120,372.028 105.916 C 371.090 104.252,366.654 101.313,365.469 101.571 C 365.447 101.576,364.727 101.907,363.867 102.308 M33.751 103.137 C 30.410 104.159,24.148 112.446,24.245 115.718 C 24.262 116.297,24.447 116.039,24.781 114.970 C 28.306 103.695,37.556 99.812,42.865 107.377 C 43.863 108.798,45.502 110.850,46.509 111.937 C 48.612 114.206,49.174 115.210,50.354 118.802 C 51.739 123.019,56.123 128.739,61.328 133.120 C 63.154 134.658,66.230 137.349,68.164 139.102 C 72.388 142.930,78.585 147.669,80.921 148.857 C 83.602 150.220,86.660 152.421,90.039 155.420 C 92.858 157.922,98.222 161.283,98.674 160.831 C 98.773 160.732,97.880 160.175,96.689 159.592 C 94.410 158.477,91.605 156.423,88.668 153.719 C 86.792 151.992,83.355 149.663,80.469 148.164 C 78.174 146.972,73.117 143.003,67.379 137.891 C 64.847 135.635,61.844 133.047,60.706 132.140 C 57.162 129.316,50.781 120.741,50.781 118.802 C 50.781 117.679,48.694 113.883,47.162 112.219 C 46.216 111.192,44.860 109.473,44.148 108.398 C 40.980 103.618,37.665 101.940,33.751 103.137 M374.100 109.956 C 374.457 110.705,374.819 111.249,374.904 111.164 C 375.082 110.986,373.896 108.594,373.629 108.594 C 373.531 108.594,373.742 109.207,374.100 109.956 M296.160 109.570 C 296.166 110.000,296.312 110.791,296.484 111.328 L 296.797 112.305 296.809 111.328 C 296.815 110.791,296.669 110.000,296.484 109.570 L 296.149 108.789 296.160 109.570 M297.081 113.477 C 297.254 114.121,297.501 116.230,297.629 118.164 C 297.844 121.430,297.882 121.554,298.161 119.907 C 298.456 118.162,297.706 113.174,297.058 112.576 C 296.897 112.427,296.907 112.832,297.081 113.477 M376.819 116.602 C 376.950 117.461,377.121 118.237,377.200 118.327 C 377.496 118.662,377.275 116.570,376.935 115.820 C 376.688 115.276,376.653 115.513,376.819 116.602 M23.688 119.589 C 23.370 122.637,23.432 136.622,23.769 137.805 C 23.909 138.295,24.025 133.857,24.027 127.942 C 24.029 122.027,24.010 117.188,23.985 117.188 C 23.960 117.188,23.826 118.268,23.688 119.589 M377.519 124.099 C 377.506 127.368,377.600 128.560,377.790 127.539 C 378.141 125.647,378.143 121.240,377.793 119.997 C 377.653 119.501,377.530 121.347,377.519 124.099 M296.510 124.716 C 296.012 126.269,295.212 128.330,294.731 129.297 C 294.250 130.264,293.637 131.758,293.369 132.617 C 292.912 134.083,291.042 137.641,289.572 139.844 C 288.982 140.727,288.981 140.765,289.561 140.234 C 290.374 139.491,293.750 133.587,293.750 132.909 C 293.750 132.629,294.343 131.130,295.068 129.579 C 296.471 126.577,297.886 122.365,297.591 122.070 C 297.494 121.973,297.007 123.163,296.510 124.716 M376.827 131.793 C 376.670 133.059,376.622 134.174,376.719 134.271 C 376.978 134.530,377.444 131.072,377.265 130.222 C 377.180 129.820,376.983 130.528,376.827 131.793 M376.220 135.352 C 376.188 135.781,376.071 136.572,375.960 137.109 L 375.759 138.086 376.178 137.128 C 376.408 136.601,376.525 135.810,376.437 135.370 C 376.282 134.591,376.277 134.590,376.220 135.352 M374.723 141.082 C 374.259 142.657,373.767 144.297,373.629 144.727 C 373.435 145.332,373.465 145.376,373.763 144.922 C 374.348 144.029,375.867 139.123,375.707 138.643 C 375.629 138.410,375.186 139.508,374.723 141.082 M24.246 139.876 C 24.261 140.396,24.433 141.172,24.628 141.602 C 24.874 142.146,24.909 141.909,24.744 140.820 C 24.467 139.007,24.207 138.511,24.246 139.876 M288.086 142.188 C 287.732 142.872,287.525 143.514,287.626 143.615 C 287.727 143.716,288.092 143.232,288.438 142.539 C 288.783 141.846,288.990 141.204,288.898 141.111 C 288.805 141.019,288.440 141.503,288.086 142.188 M25.142 143.555 C 26.256 148.796,26.277 151.710,25.241 156.950 C 24.197 162.228,24.071 163.903,24.592 165.625 C 24.783 166.256,24.899 165.428,24.921 163.281 C 24.941 161.429,25.311 158.444,25.759 156.528 C 26.805 152.060,26.454 143.825,25.168 142.636 C 25.017 142.497,25.005 142.910,25.142 143.555 M286.316 145.763 C 285.849 146.697,284.541 148.428,283.409 149.609 C 280.943 152.182,276.270 159.052,274.638 162.503 C 271.463 169.217,273.476 172.555,280.078 171.526 L 282.227 171.191 279.375 171.142 C 274.482 171.059,273.039 169.562,273.987 165.553 C 274.826 162.001,279.795 153.969,283.844 149.619 C 285.838 147.477,287.710 144.611,287.351 144.252 C 287.248 144.149,286.782 144.829,286.316 145.763 M372.852 146.484 C 372.705 146.946,372.673 147.412,372.780 147.520 C 372.888 147.627,373.096 147.337,373.242 146.875 C 373.389 146.413,373.421 145.947,373.314 145.840 C 373.206 145.732,372.998 146.022,372.852 146.484 M372.070 149.609 C 371.920 150.498,371.885 151.312,371.993 151.420 C 372.100 151.527,372.311 150.888,372.461 150.000 C 372.611 149.112,372.646 148.297,372.539 148.190 C 372.431 148.082,372.220 148.721,372.070 149.609 M313.170 151.509 C 306.731 154.834,300.320 158.980,297.656 161.540 C 296.689 162.469,294.668 163.875,293.164 164.664 C 291.660 165.454,289.434 166.828,288.217 167.718 C 287.000 168.608,285.682 169.545,285.288 169.801 C 284.893 170.057,284.746 170.275,284.961 170.285 C 285.176 170.296,286.406 169.503,287.695 168.523 C 288.984 167.544,291.227 166.137,292.679 165.396 C 294.130 164.656,296.295 163.166,297.488 162.085 C 300.586 159.279,307.821 154.689,314.117 151.535 C 318.886 149.146,320.257 148.328,319.238 148.481 C 319.077 148.506,316.346 149.868,313.170 151.509 M371.596 154.492 C 371.599 155.566,371.675 155.959,371.765 155.366 C 371.854 154.772,371.852 153.893,371.759 153.413 C 371.667 152.932,371.593 153.418,371.596 154.492 M371.960 158.203 C 371.964 158.740,372.102 159.707,372.266 160.352 L 372.564 161.523 372.571 160.352 C 372.575 159.707,372.438 158.740,372.266 158.203 L 371.953 157.227 371.960 158.203 M99.219 161.100 C 99.219 161.189,100.845 162.093,102.832 163.108 C 104.819 164.124,108.255 166.087,110.468 167.472 C 114.839 170.208,119.843 172.668,120.970 172.636 C 121.361 172.625,120.713 172.245,119.531 171.791 C 116.886 170.777,114.416 169.474,110.352 166.949 C 105.511 163.943,99.219 160.637,99.219 161.100 M372.838 165.859 C 372.831 167.904,372.950 169.260,373.104 168.871 C 373.458 167.972,373.468 163.691,373.117 162.808 C 372.971 162.441,372.846 163.814,372.838 165.859 M25.028 167.253 C 24.960 168.851,27.325 173.061,30.477 176.953 C 31.260 177.920,32.708 180.029,33.695 181.641 C 34.683 183.252,36.320 185.625,37.333 186.914 C 40.350 190.750,42.278 195.267,42.586 199.219 L 42.845 202.539 42.907 199.551 C 42.981 195.981,41.291 191.383,38.693 188.086 C 37.847 187.012,35.976 184.287,34.535 182.031 C 33.095 179.775,31.051 176.889,29.993 175.617 C 28.099 173.339,26.560 170.686,25.563 167.980 C 25.284 167.222,25.043 166.895,25.028 167.253 M372.098 170.926 C 371.955 171.499,371.925 172.055,372.032 172.162 C 372.140 172.270,372.345 171.889,372.489 171.317 C 372.633 170.744,372.662 170.188,372.555 170.081 C 372.447 169.973,372.242 170.354,372.098 170.926 M282.813 170.703 C 282.292 171.040,282.292 171.082,282.813 171.082 C 283.135 171.082,283.662 170.911,283.984 170.703 C 284.505 170.367,284.505 170.324,283.984 170.324 C 283.662 170.324,283.135 170.495,282.813 170.703 M369.824 176.535 C 368.804 178.612,367.973 180.478,367.978 180.683 C 367.983 180.887,368.872 179.328,369.954 177.217 C 371.036 175.106,371.866 173.240,371.800 173.070 C 371.734 172.900,370.845 174.459,369.824 176.535 M367.230 182.492 C 366.969 183.282,366.096 184.952,365.291 186.202 C 363.319 189.265,363.210 189.453,363.398 189.453 C 364.039 189.453,368.100 182.227,367.860 181.514 C 367.775 181.261,367.492 181.701,367.230 182.492 M361.161 194.754 C 361.017 195.327,360.987 195.883,361.095 195.991 C 361.202 196.098,361.408 195.718,361.551 195.145 C 361.695 194.573,361.725 194.016,361.617 193.909 C 361.510 193.802,361.304 194.182,361.161 194.754 M360.337 198.618 C 360.185 199.827,360.150 200.905,360.257 201.012 C 360.365 201.120,360.576 200.218,360.727 199.008 C 360.878 197.799,360.914 196.721,360.807 196.614 C 360.699 196.506,360.488 197.408,360.337 198.618 M359.811 202.027 C 359.699 203.659,356.125 209.700,353.845 212.109 C 352.524 213.506,350.078 216.318,348.409 218.359 C 346.740 220.400,344.349 223.048,343.097 224.244 C 341.443 225.823,340.143 227.654,338.343 230.942 C 335.700 235.768,334.783 236.695,330.529 238.841 C 329.381 239.421,327.359 240.894,326.037 242.115 C 322.676 245.220,319.769 247.599,316.741 249.722 C 315.314 250.723,313.127 252.703,311.881 254.123 C 309.531 256.799,308.163 257.660,303.220 259.574 C 301.661 260.178,300.468 260.755,300.569 260.856 C 300.806 261.093,304.537 259.609,307.917 257.934 C 309.921 256.941,310.896 256.156,311.952 254.687 C 312.787 253.524,315.086 251.442,317.707 249.476 C 320.107 247.676,323.533 244.890,325.322 243.286 C 327.110 241.682,329.483 239.891,330.595 239.307 C 335.383 236.790,336.997 234.948,340.218 228.320 C 340.531 227.676,342.001 225.924,343.484 224.428 C 344.967 222.932,347.252 220.383,348.561 218.764 C 349.870 217.145,352.179 214.488,353.693 212.859 C 356.605 209.725,360.366 203.314,360.034 202.048 C 359.873 201.432,359.852 201.430,359.811 202.027 M42.980 202.988 C 42.960 203.777,45.315 207.943,46.922 209.961 C 47.778 211.035,49.328 213.145,50.368 214.648 C 51.408 216.152,52.828 217.910,53.523 218.555 C 54.218 219.199,55.485 220.605,56.338 221.680 C 57.191 222.754,58.883 224.688,60.097 225.977 C 62.295 228.311,63.265 229.487,69.108 236.914 C 72.195 240.837,73.215 241.880,77.540 245.533 C 80.704 248.204,81.892 248.977,84.120 249.814 C 85.162 250.206,87.183 251.397,88.613 252.461 C 91.308 254.469,94.649 256.240,95.754 256.246 C 96.105 256.248,97.160 257.034,98.098 257.992 C 99.632 259.558,100.273 259.876,104.415 261.125 C 109.937 262.790,111.566 263.540,114.648 265.834 C 117.517 267.969,119.673 269.035,122.143 269.538 C 123.177 269.749,124.990 270.116,126.172 270.354 C 128.811 270.885,131.953 270.585,134.672 269.540 C 137.272 268.541,138.345 268.548,141.016 269.583 C 144.748 271.031,151.741 269.868,158.789 266.629 C 163.312 264.550,165.008 264.314,167.256 265.450 C 169.943 266.809,171.247 268.588,172.107 272.070 C 172.416 273.320,172.602 273.661,172.623 273.019 C 172.731 269.759,170.000 265.967,166.613 264.674 C 164.391 263.825,163.921 263.914,158.398 266.227 C 150.129 269.691,145.572 270.471,141.343 269.146 C 138.138 268.141,137.325 268.161,133.826 269.336 C 129.525 270.780,120.899 269.786,117.773 267.486 C 112.148 263.348,109.438 262.031,102.344 259.988 C 99.924 259.291,99.267 258.862,98.268 257.328 C 97.825 256.647,96.984 256.099,95.956 255.822 C 93.749 255.228,91.600 254.109,89.142 252.274 C 88.005 251.424,85.632 250.064,83.869 249.250 C 79.510 247.239,73.680 242.107,69.411 236.523 C 65.386 231.258,58.848 223.546,54.214 218.595 C 52.986 217.284,51.254 215.156,50.365 213.867 C 49.476 212.578,48.227 210.975,47.589 210.305 C 46.951 209.634,45.656 207.613,44.710 205.812 C 43.765 204.012,42.986 202.741,42.980 202.988 M294.141 262.891 C 293.620 263.227,293.620 263.269,294.141 263.269 C 294.463 263.269,294.990 263.099,295.313 262.891 C 295.833 262.554,295.833 262.512,295.313 262.512 C 294.990 262.512,294.463 262.682,294.141 262.891 M290.298 264.079 C 289.151 264.486,287.371 265.425,286.341 266.165 C 282.227 269.120,276.962 270.574,268.414 271.116 C 263.330 271.438,260.530 271.875,263.550 271.875 C 272.945 271.875,281.557 269.904,286.500 266.622 C 287.991 265.632,290.144 264.551,291.285 264.219 C 292.426 263.888,293.359 263.541,293.359 263.449 C 293.359 263.136,292.389 263.336,290.298 264.079 M236.568 267.200 C 234.987 268.589,230.976 274.879,230.668 276.452 C 230.508 277.271,230.640 277.144,231.203 275.937 C 235.120 267.538,238.078 265.445,243.253 267.411 C 244.708 267.964,246.683 268.687,247.642 269.018 C 248.601 269.349,250.271 270.116,251.353 270.724 C 253.955 272.184,257.833 272.893,260.380 272.373 C 262.271 271.987,262.246 271.980,258.958 271.953 C 254.920 271.920,253.910 271.695,251.332 270.250 C 250.238 269.638,248.129 268.716,246.645 268.201 C 245.160 267.687,243.292 266.984,242.493 266.641 C 240.147 265.631,238.140 265.820,236.568 267.200 M172.154 279.297 C 171.707 281.960,170.355 285.130,168.740 287.305 C 167.785 288.590,166.811 290.728,165.892 293.555 C 165.124 295.918,164.066 299.086,163.541 300.595 C 159.991 310.788,162.376 326.506,169.793 341.797 C 174.644 351.799,182.288 355.686,192.900 353.547 C 197.944 352.530,198.270 352.536,200.265 353.677 C 202.981 355.230,206.165 356.253,208.120 356.200 C 209.949 356.151,209.945 356.149,207.579 355.840 C 204.828 355.481,202.930 354.755,200.251 353.035 C 198.373 351.830,198.310 351.819,196.145 352.297 C 186.199 354.495,180.508 353.598,175.002 348.966 C 169.597 344.417,162.422 323.663,162.395 312.500 C 162.377 304.801,165.931 291.728,169.206 287.444 C 170.842 285.306,172.776 280.281,172.584 278.670 C 172.469 277.707,172.405 277.800,172.154 279.297 M230.129 279.104 C 230.101 279.965,230.264 281.283,230.491 282.034 C 230.718 282.784,231.141 284.541,231.431 285.938 C 231.755 287.501,231.970 288.026,231.990 287.305 C 232.008 286.660,231.748 285.166,231.414 283.984 C 231.079 282.803,230.665 280.869,230.493 279.688 C 230.205 277.708,230.177 277.662,230.129 279.104 M232.283 290.767 C 232.397 292.027,232.722 293.873,233.006 294.869 C 233.290 295.865,233.794 297.646,234.125 298.828 C 234.819 301.304,235.547 307.877,235.546 311.662 C 235.546 314.437,234.258 320.303,232.648 324.864 C 232.106 326.401,231.570 328.423,231.457 329.357 C 231.306 330.605,231.449 330.322,232.000 328.286 C 232.412 326.763,233.011 324.889,233.332 324.122 C 236.520 316.492,236.758 306.494,233.986 296.680 C 233.379 294.531,232.701 291.807,232.480 290.625 L 232.077 288.477 232.283 290.767 M230.859 333.357 C 230.859 335.704,227.681 344.702,225.596 348.261 C 222.616 353.345,216.895 356.891,212.305 356.498 C 210.772 356.367,210.299 356.411,210.938 356.625 C 215.966 358.315,223.243 353.836,226.742 346.898 C 229.497 341.433,232.260 332.031,231.109 332.031 C 230.972 332.031,230.859 332.628,230.859 333.357 " stroke="none" fill="#6b6c6a" fill-rule="evenodd"></path><path id="path4" d="M125.183 72.363 L 122.852 74.805 125.293 72.473 C 127.561 70.307,127.913 69.922,127.624 69.922 C 127.564 69.922,126.465 71.021,125.183 72.363 M164.160 111.207 C 164.536 111.305,165.151 111.305,165.527 111.207 C 165.903 111.109,165.596 111.028,164.844 111.028 C 164.092 111.028,163.784 111.109,164.160 111.207 M45.703 111.450 C 45.703 111.518,46.274 112.089,46.973 112.720 L 48.242 113.867 47.095 112.598 C 46.025 111.414,45.703 111.149,45.703 111.450 M377.465 123.633 C 377.467 124.922,377.540 125.402,377.627 124.700 C 377.714 123.998,377.712 122.943,377.623 122.356 C 377.534 121.769,377.463 122.344,377.465 123.633 M348.232 132.129 L 345.508 134.961 348.340 132.237 C 349.897 130.739,351.172 129.464,351.172 129.405 C 351.172 129.118,350.762 129.499,348.232 132.129 M51.156 131.348 C 52.113 132.368,52.948 133.203,53.011 133.203 C 53.304 133.203,52.994 132.852,51.270 131.234 L 49.414 129.492 51.156 131.348 M329.077 139.941 L 327.930 141.211 329.199 140.064 C 329.897 139.433,330.469 138.861,330.469 138.794 C 330.469 138.492,330.146 138.758,329.077 139.941 M127.251 174.104 C 127.737 174.198,128.440 174.194,128.813 174.097 C 129.187 173.999,128.789 173.922,127.930 173.927 C 127.070 173.931,126.765 174.011,127.251 174.104 M205.190 188.086 C 205.193 189.160,205.269 189.553,205.358 188.959 C 205.448 188.366,205.446 187.487,205.353 187.006 C 205.260 186.526,205.187 187.012,205.190 188.086 M143.750 190.357 C 143.750 190.424,144.321 190.995,145.020 191.626 L 146.289 192.773 145.142 191.504 C 144.072 190.321,143.750 190.055,143.750 190.357 M214.942 215.430 C 214.947 216.289,215.027 216.595,215.120 216.109 C 215.213 215.623,215.210 214.920,215.112 214.546 C 215.014 214.173,214.938 214.570,214.942 215.430 M114.160 220.993 C 115.610 221.068,117.983 221.068,119.434 220.993 C 120.884 220.918,119.697 220.856,116.797 220.856 C 113.896 220.856,112.710 220.918,114.160 220.993 M279.785 220.993 C 281.450 221.067,284.175 221.067,285.840 220.993 C 287.505 220.920,286.143 220.860,282.813 220.860 C 279.482 220.860,278.120 220.920,279.785 220.993 M93.657 221.761 C 94.143 221.854,94.846 221.851,95.219 221.753 C 95.593 221.655,95.195 221.579,94.336 221.583 C 93.477 221.587,93.171 221.667,93.657 221.761 M210.718 225.488 L 209.570 226.758 210.840 225.611 C 211.538 224.979,212.109 224.408,212.109 224.341 C 212.109 224.039,211.787 224.305,210.718 225.488 M69.922 230.591 C 69.922 230.658,70.493 231.229,71.191 231.861 L 72.461 233.008 71.314 231.738 C 70.244 230.555,69.922 230.289,69.922 230.591 M151.367 241.797 C 152.425 242.871,153.379 243.750,153.486 243.750 C 153.594 243.750,152.816 242.871,151.758 241.797 C 150.700 240.723,149.746 239.844,149.639 239.844 C 149.531 239.844,150.309 240.723,151.367 241.797 M154.858 260.254 L 153.711 261.523 154.980 260.376 C 156.164 259.307,156.430 258.984,156.128 258.984 C 156.061 258.984,155.489 259.556,154.858 260.254 M193.663 278.412 C 194.581 278.494,195.988 278.493,196.788 278.409 C 197.588 278.325,196.836 278.257,195.117 278.259 C 193.398 278.260,192.744 278.329,193.663 278.412 M229.786 308.008 C 229.790 308.867,229.870 309.173,229.964 308.687 C 230.057 308.201,230.054 307.498,229.956 307.124 C 229.858 306.751,229.782 307.148,229.786 308.008 M162.221 312.305 C 162.224 313.379,162.300 313.772,162.390 313.178 C 162.479 312.584,162.477 311.706,162.384 311.225 C 162.292 310.745,162.218 311.230,162.221 312.305 M186.816 353.785 C 187.192 353.883,187.808 353.883,188.184 353.785 C 188.560 353.687,188.252 353.606,187.500 353.606 C 186.748 353.606,186.440 353.687,186.816 353.785 " stroke="none" fill="#755404" fill-rule="evenodd"></path></g></svg>